<svg width="42" height="42" fill="none" xmlns="http://www.w3.org/2000/svg"><path fill-rule="evenodd" clip-rule="evenodd" d="M36.437 6.154c.001 0-.008.013-.033.036a.166.166 0 0 1 .033-.036zM34.962 7a16.61 16.61 0 0 0-1.848-.635C30.148 5.517 25.864 4.95 21 4.95c-4.864 0-9.148.567-12.114 1.415A16.61 16.61 0 0 0 7.038 7c.496.208 1.11.424 1.848.635C11.852 8.483 16.136 9.05 21 9.05c4.864 0 9.148-.567 12.114-1.415A16.61 16.61 0 0 0 34.962 7zM5.563 6.154c.002 0 .014.012.033.036-.025-.023-.034-.035-.033-.036zm0 1.692c-.001 0 .008-.013.033-.036a.168.168 0 0 1-.033.036zm30.84-.036c.026.023.035.035.034.036a.166.166 0 0 1-.033-.036zM21 12.25c10.148 0 18.375-2.35 18.375-5.25S31.148 1.75 21 1.75 2.625 4.1 2.625 7 10.852 12.25 21 12.25z" fill="#C7C7C7"/><path fill-rule="evenodd" clip-rule="evenodd" d="M5.973 13.042a1.6 1.6 0 0 0-3.198.083c0 1.437 1.032 2.431 1.96 3.04.993.652 2.324 1.178 3.825 1.595 3.026.84 7.114 1.34 11.565 1.34 4.452 0 8.54-.5 11.566-1.34 1.501-.417 2.832-.943 3.825-1.595.928-.609 1.96-1.603 1.96-3.04a1.6 1.6 0 0 0-3.198-.083c-.035.055-.156.21-.519.449-.6.394-1.576.811-2.925 1.186-2.675.743-6.462 1.223-10.709 1.223s-8.033-.48-10.708-1.223c-1.349-.375-2.325-.792-2.926-1.186-.362-.239-.483-.394-.518-.449z" fill="#C7C7C7"/><path fill-rule="evenodd" clip-rule="evenodd" d="M9.475 20.087a1.6 1.6 0 0 0-3.2.038c0 1.35.873 2.342 1.75 2.99.908.67 2.12 1.208 3.474 1.63 2.726.853 6.395 1.355 10.376 1.355 3.982 0 7.65-.502 10.377-1.354 1.354-.423 2.566-.96 3.474-1.631.877-.648 1.75-1.64 1.75-2.99a1.6 1.6 0 0 0-3.2-.038c-.02.045-.11.202-.452.454-.508.376-1.347.782-2.526 1.15-2.34.732-5.672 1.209-9.423 1.209-3.75 0-7.081-.477-9.422-1.209-1.18-.368-2.018-.774-2.527-1.15-.341-.252-.431-.409-.451-.454zm24.806-.013l-.001.004v-.004zm-24.81.004a.02.02 0 0 1-.001-.004l.001.004zm.873 7.782A1.6 1.6 0 0 0 7.15 28c0 1.24.813 2.118 1.553 2.656.775.564 1.794 1.005 2.909 1.348 2.249.692 5.258 1.096 8.513 1.096s6.265-.404 8.514-1.096c1.115-.343 2.134-.784 2.909-1.348.74-.538 1.552-1.416 1.552-2.656a1.6 1.6 0 0 0-3.194-.14 1.462 1.462 0 0 1-.24.209c-.377.273-1.024.586-1.968.877-1.868.574-4.545.954-7.573.954-3.027 0-5.705-.38-7.572-.954-.944-.29-1.591-.604-1.968-.878a1.471 1.471 0 0 1-.24-.208zm19.594-.043l-.007.011a.04.04 0 0 1 .007-.01zm-19.619.011a.04.04 0 0 1-.006-.01s.003.003.006.01zM13.25 33.4a1.6 1.6 0 0 1 1.6 1.6c0 .006 0 .026.019.067.02.046.063.123.156.226.192.214.54.478 1.085.734 1.089.513 2.706.873 4.578.873 1.872 0 3.489-.36 4.578-.873.545-.256.893-.52 1.085-.734a.875.875 0 0 0 .156-.226.168.168 0 0 0 .018-.067 1.6 1.6 0 1 1 3.2 0c0 1.95-1.62 3.227-3.097 3.923-1.603.754-3.705 1.177-5.94 1.177-2.235 0-4.337-.423-5.94-1.177C13.27 38.227 11.65 36.95 11.65 35a1.6 1.6 0 0 1 1.6-1.6z" fill="#C7C7C7"/></svg>