<svg width="42" height="42" viewBox="0 0 42 42" fill="none" xmlns="http://www.w3.org/2000/svg">
<path d="M19.9994 2C19.9994 1.44772 20.4471 1 20.9994 1C21.5517 1 21.9994 1.44771 21.9994 2V17.536C21.9994 18.3058 22.8327 18.7869 23.4994 18.402L36.9541 10.6339C37.4324 10.3578 38.0439 10.5216 38.3201 10.9999C38.5962 11.4782 38.4324 12.0898 37.9541 12.366L24.4996 20.1339C23.8329 20.5188 23.8329 21.4811 24.4996 21.866L37.9541 29.6339C38.4324 29.9101 38.5962 30.5217 38.3201 30.9999C38.0439 31.4782 37.4324 31.6421 36.9541 31.366L23.4994 23.5979C22.8327 23.213 21.9994 23.6941 21.9994 24.4639V40C21.9994 40.5523 21.5517 41 20.9994 41C20.4471 41 19.9994 40.5523 19.9994 40V24.4642C19.9994 23.6944 19.166 23.2132 18.4994 23.5981L5.04509 31.366C4.5668 31.6421 3.95521 31.4782 3.67906 30.9999C3.40292 30.5217 3.5668 29.9101 4.04509 29.6339L17.4996 21.866C18.1662 21.4811 18.1662 20.5188 17.4996 20.1339L4.04509 12.366C3.5668 12.0898 3.40292 11.4782 3.67906 10.9999C3.95521 10.5216 4.5668 10.3578 5.04509 10.6339L18.4994 18.4018C19.166 18.7867 19.9994 18.3055 19.9994 17.5357V2Z" fill="#55AEED" stroke="#55AEED" stroke-width="1.6"/>
<path fill-rule="evenodd" clip-rule="evenodd" d="M17.6431 3C16.8133 3 16.3445 3.95243 16.8507 4.60999L19.738 8.36064L20.2075 8.97063C20.6078 9.49064 21.392 9.49064 21.7923 8.97063L22.2619 8.36064L25.1492 4.61C25.6554 3.95243 25.1866 3 24.3568 3C24.0464 3 23.7537 3.14409 23.5643 3.39001L21.7923 5.69192C21.392 6.21192 20.6078 6.21192 20.2075 5.69192L18.4355 3.39001C18.2462 3.14409 17.9535 3 17.6431 3Z" fill="#55AEED" stroke="#55AEED" stroke-width="1.6"/>
<path fill-rule="evenodd" clip-rule="evenodd" d="M24.3569 39C25.1867 39 25.6555 38.0476 25.1493 37.39L22.262 33.6394L21.7925 33.0294C21.3922 32.5094 20.608 32.5094 20.2077 33.0294L19.7381 33.6394L16.8508 37.39C16.3446 38.0476 16.8134 39 17.6432 39C17.9536 39 18.2463 38.8559 18.4357 38.61L20.2077 36.3081C20.608 35.7881 21.3922 35.7881 21.7925 36.3081L23.5645 38.61C23.7538 38.8559 24.0465 39 24.3569 39Z" fill="#55AEED" stroke="#55AEED" stroke-width="1.6"/>
<path fill-rule="evenodd" clip-rule="evenodd" d="M3.73269 14.9072C3.31777 15.6258 3.90821 16.508 4.73078 16.3984L9.42256 15.7733L10.1856 15.6716C10.8361 15.585 11.2282 14.9058 10.978 14.2992L10.6845 13.5875L8.88001 9.21174C8.56364 8.44458 7.50443 8.37433 7.08951 9.09299C6.93434 9.36175 6.91274 9.68733 7.03106 9.97423L8.13857 12.6598C8.38876 13.2665 7.99665 13.9456 7.34616 14.0323L4.46664 14.4159C4.15902 14.4569 3.88786 14.6384 3.73269 14.9072Z" fill="#55AEED" stroke="#55AEED" stroke-width="1.6"/>
<path fill-rule="evenodd" clip-rule="evenodd" d="M38.2673 27.0928C38.6822 26.3742 38.0918 25.492 37.2692 25.6016L32.5774 26.2267L31.8144 26.3284C31.1639 26.415 30.7718 27.0942 31.022 27.7008L31.3155 28.4125L33.12 32.7883C33.4364 33.5554 34.4956 33.6257 34.9105 32.907C35.0657 32.6382 35.0873 32.3127 34.9689 32.0258L33.8614 29.3402C33.6112 28.7335 34.0033 28.0544 34.6538 27.9677L37.5334 27.5841C37.841 27.5431 38.1121 27.3616 38.2673 27.0928Z" fill="#55AEED" stroke="#55AEED" stroke-width="1.6"/>
<path fill-rule="evenodd" clip-rule="evenodd" d="M7.08958 32.9072C7.5045 33.6258 8.5637 33.5556 8.88008 32.7884L10.6846 28.4127L10.9781 27.701C11.2283 27.0943 10.8362 26.4152 10.1857 26.3285L9.42263 26.2269L4.73085 25.6017C3.90828 25.4922 3.31784 26.3743 3.73276 27.093C3.88793 27.3618 4.15909 27.5432 4.46671 27.5842L7.34623 27.9679C7.99672 28.0545 8.38883 28.7337 8.13864 29.3404L7.03113 32.0259C6.91281 32.3128 6.93441 32.6384 7.08958 32.9072Z" fill="#55AEED" stroke="#55AEED" stroke-width="1.6"/>
<path fill-rule="evenodd" clip-rule="evenodd" d="M34.9085 9.09283C34.4935 8.37416 33.4343 8.44441 33.118 9.21158L31.3134 13.5873L31.02 14.299C30.7698 14.9057 31.1619 15.5848 31.8124 15.6715L32.5754 15.7731L37.2672 16.3983C38.0898 16.5078 38.6802 15.6257 38.2653 14.907C38.1101 14.6382 37.839 14.4568 37.5313 14.4158L34.6518 14.0321C34.0013 13.9455 33.6092 13.2663 33.8594 12.6596L34.9669 9.97407C35.0852 9.68717 35.0636 9.36159 34.9085 9.09283Z" fill="#55AEED" stroke="#55AEED" stroke-width="1.6"/>
</svg>
