<svg width="42" height="42" fill="none" xmlns="http://www.w3.org/2000/svg"><g clip-path="url(#clip0)"><path fill-rule="evenodd" clip-rule="evenodd" d="M30.047 27.11a9.048 9.048 0 1 0 0-18.095 7.932 7.932 0 0 0-.878 0A11.757 11.757 0 0 0 6.533 13.49v.065a7.238 7.238 0 0 0 3.609 13.512l19.905.044z" fill="#CDCDCD"/><path d="M29.148 9.058a11.54 11.54 0 0 0-1.96-3.25A9.059 9.059 0 0 0 21 14.39c.009.59.074 1.177.195 1.755a9.059 9.059 0 0 1 7.953-7.087zm-24.283 5.84a8.16 8.16 0 0 0 4.129 5.798 11.66 11.66 0 0 1-2.438-7.152 7.314 7.314 0 0 0-1.69 1.355z" fill="#0F0F0F" fill-opacity=".2"/><path d="M23.762 30.476a.238.238 0 1 1 .476 0v3.7c0 .182.198.297.357.205l3.203-1.85a.238.238 0 1 1 .238.413l-3.203 1.85a.238.238 0 0 0 0 .412l3.203 1.85a.238.238 0 1 1-.238.412l-3.203-1.85a.238.238 0 0 0-.357.207v3.699a.238.238 0 1 1-.476 0v-3.7a.238.238 0 0 0-.358-.205l-3.203 1.85a.238.238 0 0 1-.238-.413l3.203-1.85a.238.238 0 0 0 0-.412l-3.203-1.85a.238.238 0 0 1 .238-.412l3.203 1.85a.238.238 0 0 0 .358-.207v-3.699z" fill="#55AEED" stroke="#55AEED" stroke-width="1.2"/><path fill-rule="evenodd" clip-rule="evenodd" d="M23.2 30.714a.238.238 0 0 0-.188.384l.687.893a.38.38 0 0 0 .601 0l.688-.893a.238.238 0 1 0-.377-.29l-.117.15a.624.624 0 0 1-.989 0l-.116-.15a.238.238 0 0 0-.188-.094zm1.6 8.572c.197 0 .309-.227.188-.384l-.687-.893a.38.38 0 0 0-.601 0l-.688.893a.238.238 0 1 0 .377.29l.117-.15a.624.624 0 0 1 .989 0l.116.15a.238.238 0 0 0 .188.094zm-4.912-5.737a.238.238 0 0 0 .238.355l1.117-.148a.38.38 0 0 0 .3-.52l-.43-1.043a.238.238 0 0 0-.44.181l.073.176a.624.624 0 0 1-.494.857l-.189.025a.238.238 0 0 0-.175.117zm8.222 2.902a.238.238 0 0 0-.238-.355l-1.117.149a.38.38 0 0 0-.3.52l.43 1.042a.238.238 0 0 0 .44-.181l-.073-.176a.624.624 0 0 1 .495-.857l.188-.025a.238.238 0 0 0 .175-.117zm-7.422 1.384a.238.238 0 0 0 .426-.028l.43-1.042a.38.38 0 0 0-.3-.52l-1.118-.15a.238.238 0 1 0-.063.472l.189.026c.406.054.65.478.494.856l-.072.176a.238.238 0 0 0 .014.21zm6.624-5.67a.238.238 0 0 0-.426.028l-.43 1.042a.38.38 0 0 0 .3.52l1.118.15a.238.238 0 1 0 .063-.472l-.189-.026a.624.624 0 0 1-.494-.856l.072-.176a.238.238 0 0 0-.014-.21z" fill="#55AEED" stroke="#55AEED" stroke-width="1.2"/><path d="M11.858 31.286a.143.143 0 0 1 .286 0v2.22c0 .11.12.178.214.123l1.922-1.11a.143.143 0 0 1 .143.248l-1.922 1.11a.143.143 0 0 0 0 .247l1.922 1.11a.143.143 0 0 1-.143.247l-1.922-1.11a.143.143 0 0 0-.214.124v2.22a.143.143 0 0 1-.286 0v-2.22a.143.143 0 0 0-.214-.124l-1.922 1.11a.143.143 0 1 1-.143-.248l1.922-1.11a.143.143 0 0 0 0-.247l-1.922-1.11a.143.143 0 0 1 .143-.247l1.922 1.11a.143.143 0 0 0 .214-.124v-2.22z" fill="#55AEED" stroke="#55AEED" stroke-width=".8"/><path fill-rule="evenodd" clip-rule="evenodd" d="M11.52 31.429a.143.143 0 0 0-.112.23l.412.535c.091.119.27.119.36 0l.413-.535a.143.143 0 0 0-.226-.174l-.07.09a.375.375 0 0 1-.594 0l-.07-.09a.143.143 0 0 0-.112-.056zm.96 5.142a.143.143 0 0 0 .112-.23l-.412-.535a.228.228 0 0 0-.36 0l-.413.535a.143.143 0 0 0 .226.174l.07-.09a.375.375 0 0 1 .594 0l.07.09a.143.143 0 0 0 .112.056zM9.533 33.13a.143.143 0 0 0 .142.213l.67-.09a.227.227 0 0 0 .18-.312l-.257-.625a.143.143 0 0 0-.264.109l.044.105a.375.375 0 0 1-.297.514l-.113.015a.143.143 0 0 0-.105.07zm4.932 1.74a.143.143 0 0 0-.142-.213l-.67.09a.227.227 0 0 0-.18.312l.257.625a.143.143 0 0 0 .264-.109l-.044-.105a.375.375 0 0 1 .297-.514l.113-.015a.143.143 0 0 0 .105-.07zm-4.453.831c.06.103.21.093.256-.017l.258-.625a.228.228 0 0 0-.18-.312l-.67-.09a.143.143 0 0 0-.038.283l.112.016c.244.032.39.286.297.514l-.043.105a.143.143 0 0 0 .008.126zm3.976-3.402a.143.143 0 0 0-.256.017l-.258.625a.228.228 0 0 0 .18.312l.67.09a.143.143 0 1 0 .038-.283l-.112-.016a.374.374 0 0 1-.297-.514l.043-.105a.143.143 0 0 0-.008-.126z" fill="#55AEED" stroke="#55AEED" stroke-width=".8"/></g><defs><clipPath id="clip0"><path d="M0 0h42v42H0V0z" fill="#fff"/></clipPath></defs></svg>