<svg width="42" height="42" fill="none" xmlns="http://www.w3.org/2000/svg"><g clip-path="url(#clip0)"><path fill-rule="evenodd" clip-rule="evenodd" d="M30.047 27.11a9.048 9.048 0 0 0 0-18.095 7.932 7.932 0 0 0-.878 0A11.757 11.757 0 0 0 6.533 13.49v.065a7.238 7.238 0 0 0 3.609 13.512l19.905.044z" fill="#CDCDCD"/><path d="M29.148 9.058a11.541 11.541 0 0 0-1.96-3.25A9.059 9.059 0 0 0 21 14.39c.009.59.074 1.177.195 1.755a9.059 9.059 0 0 1 7.953-7.087zm-24.283 5.84a8.16 8.16 0 0 0 4.129 5.798 11.66 11.66 0 0 1-2.438-7.152 7.314 7.314 0 0 0-1.69 1.355z" fill="#0F0F0F" fill-opacity=".2"/><path fill-rule="evenodd" clip-rule="evenodd" d="M11.8 29.614a1.6 1.6 0 0 1 .585 2.186l-.57.99a1.6 1.6 0 1 1-2.772-1.6l.571-.99a1.6 1.6 0 0 1 2.186-.586zm18 0a1.6 1.6 0 0 1 .585 2.186l-.57.99a1.6 1.6 0 1 1-2.772-1.6l.571-.99a1.6 1.6 0 0 1 2.186-.586zm-9 0a1.6 1.6 0 0 1 .585 2.186l-.57.99a1.6 1.6 0 1 1-2.772-1.6l.571-.99a1.6 1.6 0 0 1 2.186-.586z" fill="#2F95E5"/><path d="M11 38c0 1-1.343 3-3 3a3 3 0 0 1-3-3c0-1.657 1.5-3 3-3a3 3 0 0 1 3 3zm9 0a3 3 0 0 1-3 3c-1.657 0-3-2-3-3a3 3 0 0 1 3-3c1.5 0 3 1.343 3 3zm9 0c0 1.657-2 3-3 3a3 3 0 0 1-3-3c0-1.657 1.5-3 3-3a3 3 0 0 1 3 3z" fill="#2F95E5"/></g><defs><clipPath id="clip0"><path d="M0 0h42v42H0V0z" fill="#fff"/></clipPath></defs></svg>