<svg width="42" height="42" fill="none" xmlns="http://www.w3.org/2000/svg"><path fill-rule="evenodd" clip-rule="evenodd" d="M12.882 9.286c-.85 1-1.182 2.142-1.182 2.714a1.6 1.6 0 0 1-3.2 0c0-1.428.668-3.286 1.943-4.786C11.768 5.655 13.82 4.4 16.6 4.4c2.64 0 4.678.897 6.124 2.349 1.414 1.418 2.15 3.25 2.452 4.975.846 4.835-2.885 9.876-8.076 9.876H3.6V20v-1.6h13.5c3.025 0 5.459-3.068 4.924-6.124-.222-1.268-.735-2.435-1.566-3.269C19.66 8.207 18.46 7.6 16.6 7.6c-1.72 0-2.918.745-3.718 1.686zM2 20a1.6 1.6 0 0 1 1.6-1.6v3.2A1.6 1.6 0 0 1 2 20zm17.292 13.357c-.546-.643-.735-1.357-.735-1.643a1.6 1.6 0 1 0-3.2 0c0 1.143.526 2.572 1.497 3.715C17.875 36.63 19.463 37.6 21.6 37.6c1.997 0 3.573-.683 4.698-1.812 1.093-1.096 1.651-2.5 1.878-3.798.649-3.708-2.202-7.59-6.219-7.59H3.601L3.6 26v1.6h18.357c1.851 0 3.404 1.91 3.067 3.838-.147.84-.482 1.58-.992 2.091-.478.48-1.215.871-2.432.871-1.077 0-1.811-.46-2.308-1.043zM2 26a1.6 1.6 0 0 0 1.6 1.6v-3.2A1.6 1.6 0 0 0 2 26z" fill="#C7C7C7"/><circle cx="38.6" cy="5.6" r="1.6" fill="#F58433"/><circle cx="38.6" cy="15.6" r="1.6" fill="#F58433"/><circle cx="33.6" cy="10.6" r="1.6" fill="#F58433"/><circle cx="33.6" cy="30.6" r="1.6" fill="#F58433"/><circle cx="38.6" cy="35.6" r="1.6" fill="#F58433"/><circle cx="33.6" cy="20.6" r="1.6" fill="#F58433"/><circle cx="38.6" cy="25.6" r="1.6" fill="#F58433"/></svg>