<svg width="42" height="42" fill="none" xmlns="http://www.w3.org/2000/svg"><path fill-rule="evenodd" clip-rule="evenodd" d="M4 7.4a1.6 1.6 0 0 1 1.6-1.6h20.8a1.6 1.6 0 1 1 0 3.2H5.6A1.6 1.6 0 0 1 4 7.4zm26 0a1.6 1.6 0 0 1 1.6-1.6h4.8a1.6 1.6 0 1 1 0 3.2h-4.8A1.6 1.6 0 0 1 30 7.4zm-18 7a1.6 1.6 0 0 1 1.6-1.6h21.8a1.6 1.6 0 1 1 0 3.2H13.6a1.6 1.6 0 0 1-1.6-1.6zm-11 0a1.6 1.6 0 0 1 1.6-1.6h5.8a1.6 1.6 0 1 1 0 3.2H2.6A1.6 1.6 0 0 1 1 14.4zm28 7a1.6 1.6 0 0 1 1.6-1.6h7.8a1.6 1.6 0 1 1 0 3.2h-7.8a1.6 1.6 0 0 1-1.6-1.6zm-23 0a1.6 1.6 0 0 1 1.6-1.6h17.8a1.6 1.6 0 1 1 0 3.2H7.6A1.6 1.6 0 0 1 6 21.4zm8 7a1.6 1.6 0 0 1 1.6-1.6h18.8a1.6 1.6 0 1 1 0 3.2H15.6a1.6 1.6 0 0 1-1.6-1.6zm-10 0a1.6 1.6 0 0 1 1.6-1.6h4.8a1.6 1.6 0 1 1 0 3.2H5.6A1.6 1.6 0 0 1 4 28.4zm22 7a1.6 1.6 0 0 1 1.6-1.6h8.8a1.6 1.6 0 1 1 0 3.2h-8.8a1.6 1.6 0 0 1-1.6-1.6zm-23 0a1.6 1.6 0 0 1 1.6-1.6h17.8a1.6 1.6 0 1 1 0 3.2H4.6A1.6 1.6 0 0 1 3 35.4z" fill="#C7C7C7"/></svg>