<svg width="42" height="42" fill="none" xmlns="http://www.w3.org/2000/svg"><path fill-rule="evenodd" clip-rule="evenodd" d="M29.282 6.886c-.85 1-1.182 2.142-1.182 2.714a1.6 1.6 0 0 1-3.2 0c0-1.428.669-3.286 1.944-4.786C28.169 3.255 30.22 2 33 2c2.64 0 4.679.897 6.125 2.349 1.413 1.418 2.15 3.25 2.451 4.975.847 4.836-2.885 9.876-8.076 9.876H12.001v-1.6V16h21.5c3.024 0 5.458-3.068 4.923-6.124-.221-1.267-.735-2.435-1.566-3.269C36.06 5.807 34.86 5.2 33 5.2c-1.72 0-2.918.745-3.718 1.686zM10.4 17.6A1.6 1.6 0 0 1 12 16v1.6l.001 1.6a1.6 1.6 0 0 1-1.6-1.6zm18.1 4a1.6 1.6 0 0 1 0 3.2H7.001v-1.6-1.6h21.5zM5.4 23.2A1.6 1.6 0 0 1 7 21.6v1.6l.001 1.6a1.6 1.6 0 0 1-1.6-1.6zm14.293 12.557c-.547-.643-.736-1.357-.736-1.643a1.6 1.6 0 1 0-3.2 0c0 1.143.526 2.572 1.498 3.715C18.274 39.03 19.863 40 22 40c1.998 0 3.573-.682 4.699-1.812 1.092-1.096 1.65-2.5 1.877-3.798.65-3.708-2.201-7.59-6.218-7.59H2V30h20.357c1.85 0 3.404 1.91 3.066 3.839-.147.84-.482 1.578-.992 2.09-.477.48-1.215.871-2.432.871-1.076 0-1.81-.459-2.307-1.043zM.4 28.4A1.6 1.6 0 0 0 2 30v-1.6l.001-1.6a1.6 1.6 0 0 0-1.6 1.6z" fill="#C7C7C7"/></svg>