<svg width="42" height="42" fill="none" xmlns="http://www.w3.org/2000/svg"><path d="M10.571 2.857a.429.429 0 0 1 .858 0v6.658c0 .33.357.537.642.372l5.767-3.33a.429.429 0 0 1 .428.743L12.5 10.629a.429.429 0 0 0 0 .742l5.766 3.33a.429.429 0 1 1-.428.742l-5.767-3.33a.428.428 0 0 0-.642.372v6.658a.429.429 0 0 1-.858 0v-6.658a.429.429 0 0 0-.642-.371l-5.767 3.329a.429.429 0 0 1-.428-.743L9.5 11.371a.429.429 0 0 0 0-.742l-5.766-3.33a.429.429 0 1 1 .428-.742l5.767 3.33a.429.429 0 0 0 .642-.372V2.857z" fill="#55AEED" stroke="#55AEED" stroke-width="1.6"/><path fill-rule="evenodd" clip-rule="evenodd" d="M9.562 3.286a.429.429 0 0 0-.34.69l1.238 1.607a.683.683 0 0 0 1.082 0l1.237-1.607a.429.429 0 0 0-.68-.523l-.306.398a1 1 0 0 1-1.585 0l-.306-.398a.429.429 0 0 0-.34-.167zm2.878 15.428a.429.429 0 0 0 .34-.69l-1.238-1.607a.683.683 0 0 0-1.082 0l-1.237 1.607a.429.429 0 0 0 .68.523l.306-.398a1 1 0 0 1 1.585 0l.306.398a.429.429 0 0 0 .34.167zM3.6 8.39a.429.429 0 0 0 .427.639l2.011-.268a.683.683 0 0 0 .54-.937l-.773-1.875a.429.429 0 0 0-.792.327l.192.464a1 1 0 0 1-.793 1.373l-.498.066a.429.429 0 0 0-.315.21zm14.799 5.222a.429.429 0 0 0-.428-.639l-2.01.268a.683.683 0 0 0-.542.937l.774 1.875a.429.429 0 0 0 .792-.327l-.192-.464a1 1 0 0 1 .793-1.373l.498-.066a.428.428 0 0 0 .315-.21zm-13.36 2.492a.429.429 0 0 0 .768-.05l.773-1.876a.683.683 0 0 0-.54-.937l-2.012-.268a.429.429 0 0 0-.113.85l.498.066a1 1 0 0 1 .793 1.373l-.192.464a.429.429 0 0 0 .025.378zM16.963 5.897a.429.429 0 0 0-.768.05l-.773 1.876a.683.683 0 0 0 .54.937l2.012.268a.429.429 0 0 0 .113-.85l-.498-.066a1 1 0 0 1-.793-1.373l.192-.464a.429.429 0 0 0-.025-.378z" fill="#55AEED" stroke="#55AEED" stroke-width="1.6"/><path fill-rule="evenodd" clip-rule="evenodd" d="M29.282 9.286c-.85 1-1.182 2.142-1.182 2.714a1.6 1.6 0 0 1-3.2 0c0-1.428.669-3.286 1.944-4.786C28.169 5.655 30.22 4.4 33 4.4c2.64 0 4.679.897 6.125 2.349 1.413 1.418 2.15 3.25 2.451 4.975.847 4.835-2.885 9.876-8.076 9.876H20V20v-1.6h13.5c3.025 0 5.46-3.068 4.924-6.124-.221-1.268-.735-2.435-1.566-3.269C36.06 8.207 34.86 7.6 33 7.6c-1.72 0-2.918.745-3.718 1.686zM18.4 20a1.6 1.6 0 0 1 1.6-1.6v3.2a1.6 1.6 0 0 1-1.6-1.6zm1.293 13.357c-.547-.643-.736-1.357-.736-1.643a1.6 1.6 0 1 0-3.2 0c0 1.143.526 2.572 1.498 3.715C18.274 36.63 19.863 37.6 22 37.6c1.998 0 3.573-.683 4.699-1.812 1.092-1.096 1.65-2.5 1.877-3.798.65-3.708-2.201-7.59-6.218-7.59H4v3.2h18.357c1.85 0 3.404 1.91 3.066 3.838-.147.84-.482 1.58-.992 2.091-.477.48-1.215.871-2.432.871-1.076 0-1.81-.46-2.307-1.043zM2.4 26A1.6 1.6 0 0 0 4 27.6V26l.001-1.6a1.6 1.6 0 0 0-1.6 1.6z" fill="#C7C7C7"/></svg>