<svg width="42" height="42" fill="none" xmlns="http://www.w3.org/2000/svg"><g clip-path="url(#clip0)"><path fill-rule="evenodd" clip-rule="evenodd" d="M32.334 23.777a6.333 6.333 0 1 0 0-12.667 5.523 5.523 0 0 0-.615 0 8.23 8.23 0 0 0-15.845 3.133v.046a5.067 5.067 0 0 0 2.526 9.458l13.934.03z" fill="#DBDBDB" opacity=".6"/><path d="M18.714 10.732a7.823 7.823 0 0 1-9.446-9.446 7.823 7.823 0 1 0 9.446 9.446z" fill="#82C5F4"/><path d="M16.199 14.832a7.823 7.823 0 0 1-9.324-12.52 7.823 7.823 0 1 0 9.324 12.52z" fill="#2F95E5"/><path fill-rule="evenodd" clip-rule="evenodd" d="M30.047 34.11a9.048 9.048 0 1 0 0-18.095 7.932 7.932 0 0 0-.878 0A11.757 11.757 0 0 0 6.533 20.49v.065a7.238 7.238 0 0 0 3.609 13.512l19.905.044z" fill="#CDCDCD"/><path d="M29.148 16.058a11.541 11.541 0 0 0-1.96-3.25A9.059 9.059 0 0 0 21 21.39c.009.59.074 1.177.195 1.755a9.059 9.059 0 0 1 7.953-7.087zm-24.283 5.84a8.16 8.16 0 0 0 4.129 5.798 11.66 11.66 0 0 1-2.438-7.152 7.314 7.314 0 0 0-1.69 1.355z" fill="#0F0F0F" fill-opacity=".2"/></g><defs><clipPath id="clip0"><path d="M0 0h42v42H0V0z" fill="#fff"/></clipPath></defs></svg>