<svg width="42" height="42" fill="none" xmlns="http://www.w3.org/2000/svg"><g clip-path="url(#clip0)"><path fill-rule="evenodd" clip-rule="evenodd" d="M33.881 24.222a5.881 5.881 0 1 0 0-11.762 5.17 5.17 0 0 0-.57 0 7.642 7.642 0 0 0-14.714 2.909v.042a4.705 4.705 0 0 0 2.346 8.783l12.938.028z" fill="#DBDBDB" opacity=".6"/><path fill-rule="evenodd" clip-rule="evenodd" d="M12.229 0c.505 0 .914.41.914.914v2.59a8.65 8.65 0 0 0-1.829-.048V.914c0-.505.41-.914.915-.914zM6.525 5.405L4.796 3.676a.914.914 0 1 0-1.293 1.293L5.25 6.716c.378-.481.805-.92 1.275-1.311zm-3.02 5.452H.914a.914.914 0 0 0 0 1.829h2.54a8.687 8.687 0 0 1 .05-1.829zm1.72 6.395l-1.71 1.712a.914.914 0 0 0 1.293 1.293l1.687-1.687a8.617 8.617 0 0 1-1.27-1.318zm6.09 3.292v2.542a.914.914 0 1 0 1.828 0v-2.59a8.654 8.654 0 0 1-1.829.048zm5.969-1.794l1.897 1.897a.914.914 0 0 0 1.293-1.293l-1.879-1.879c-.39.47-.83.897-1.311 1.275zm3.26-6.064h2.542a.914.914 0 1 0 0-1.829h-2.59a8.654 8.654 0 0 1 .048 1.829zM18.57 6.495l1.915-1.916a.914.914 0 1 0-1.293-1.293l-1.94 1.94c.483.375.925.8 1.318 1.269z" fill="#FAD95A"/><ellipse cx="12" cy="12" rx="6.947" ry="6.947" fill="#E0B300"/><mask id="a" maskUnits="userSpaceOnUse" x="5" y="5" width="14" height="14"><ellipse cx="12" cy="12" rx="6.947" ry="6.947" fill="#C79300"/></mask><g mask="url(#a)"><path fill-rule="evenodd" clip-rule="evenodd" d="M10.52 5.21a6.947 6.947 0 0 1 8.014 9.158A6.947 6.947 0 0 1 10.52 5.21z" fill="#FAD95A"/></g><path fill-rule="evenodd" clip-rule="evenodd" d="M30.047 34.11a9.048 9.048 0 0 0 0-18.095 7.932 7.932 0 0 0-.878 0A11.757 11.757 0 0 0 6.533 20.49v.065a7.238 7.238 0 0 0 3.609 13.512l19.905.044z" fill="#CDCDCD"/><path d="M29.148 16.058a11.541 11.541 0 0 0-1.96-3.25A9.059 9.059 0 0 0 21 21.39c.009.59.074 1.177.195 1.755a9.059 9.059 0 0 1 7.953-7.087zm-24.283 5.84a8.16 8.16 0 0 0 4.129 5.798 11.66 11.66 0 0 1-2.438-7.152 7.314 7.314 0 0 0-1.69 1.355z" fill="#0F0F0F" fill-opacity=".2"/></g><defs><clipPath id="clip0"><path d="M0 0h42v42H0V0z" fill="#fff"/></clipPath></defs></svg>