<svg width="42" height="42" fill="none" xmlns="http://www.w3.org/2000/svg"><g clip-path="url(#clip0)"><path d="M26.143 15.502c-.853.205-1.743.314-2.659.314-6.24 0-11.3-5.059-11.3-11.3 0-.916.109-1.806.315-2.659-4.958 1.196-8.642 5.66-8.642 10.986 0 6.24 5.06 11.3 11.3 11.3 5.326 0 9.79-3.683 10.986-8.641z" fill="#82C5F4"/><path d="M22.51 21.424a11.247 11.247 0 0 1-6.114 1.795c-6.241 0-11.3-5.059-11.3-11.3 0-3.433 1.53-6.508 3.947-8.58a11.291 11.291 0 0 0-5.186 9.504c0 6.24 5.06 11.3 11.3 11.3 2.809 0 5.377-1.024 7.354-2.72z" fill="#2F95E5"/><path fill-rule="evenodd" clip-rule="evenodd" d="M30.047 34.11a9.048 9.048 0 1 0 0-18.095 7.932 7.932 0 0 0-.878 0A11.757 11.757 0 0 0 6.533 20.49v.065a7.238 7.238 0 0 0 3.609 13.512l19.905.044z" fill="#CDCDCD"/><path d="M29.148 16.058a11.541 11.541 0 0 0-1.96-3.25A9.059 9.059 0 0 0 21 21.39c.009.59.074 1.177.195 1.755a9.059 9.059 0 0 1 7.953-7.087zm-24.283 5.84a8.16 8.16 0 0 0 4.129 5.798 11.66 11.66 0 0 1-2.438-7.152 7.314 7.314 0 0 0-1.69 1.355z" fill="#0F0F0F" fill-opacity=".2"/></g><defs><clipPath id="clip0"><path d="M0 0h42v42H0V0z" fill="#fff"/></clipPath></defs></svg>