<svg width="42" height="42" fill="none" xmlns="http://www.w3.org/2000/svg"><g clip-path="url(#clip0)"><path d="M39 25.041a18.303 18.303 0 0 1-4.295.509c-10.082 0-18.255-8.173-18.255-18.254 0-1.48.176-2.918.509-4.296C8.949 4.932 3 12.144 3 20.746 3 30.827 11.173 39 21.254 39 29.856 39 37.068 33.05 39 25.041z" fill="#82C5F4"/><path d="M33.132 34.607a18.169 18.169 0 0 1-9.878 2.901C13.173 37.508 5 29.336 5 19.254a18.213 18.213 0 0 1 6.376-13.861C6.336 8.642 3 14.304 3 20.746 3 30.827 11.173 39 21.254 39c4.536 0 8.686-1.654 11.878-4.393z" fill="#2F95E5"/><path d="M23.175 10.178a.96.96 0 1 0 1.922 0v-.961h.96a.96.96 0 1 0 0-1.921h-.96v-.961a.96.96 0 0 0-1.922 0v.96h-.96a.96.96 0 1 0 0 1.922h.96v.96zm6.725 7.686a.96.96 0 1 0 1.922 0v-.961h.96a.96.96 0 1 0 0-1.921h-.96v-.961a.96.96 0 1 0-1.922 0v.96h-.96a.96.96 0 0 0 0 1.922h.96v.96zm3.844-9.608a.96.96 0 1 0 1.921 0v-.96h.961a.96.96 0 0 0 0-1.922h-.96v-.96a.96.96 0 1 0-1.922 0v.96h-.961a.96.96 0 0 0 0 1.921h.96v.961z" fill="#FAD95A"/></g><defs><clipPath id="clip0"><path d="M0 0h42v42H0V0z" fill="#fff"/></clipPath></defs></svg>