<svg width="42" height="42" fill="none" xmlns="http://www.w3.org/2000/svg"><path d="M34.82 24.386c-1.075.26-2.198.397-3.353.397-7.87 0-14.25-6.38-14.25-14.25 0-1.155.137-2.278.397-3.353C11.36 8.688 6.717 14.318 6.717 21.033c0 7.87 6.38 14.25 14.25 14.25 6.715 0 12.345-4.645 13.853-10.897z" fill="#82C5F4"/><path d="M30.24 31.854a14.184 14.184 0 0 1-7.712 2.265c-7.87 0-14.25-6.38-14.25-14.25 0-4.33 1.93-8.208 4.977-10.821-3.933 2.536-6.538 6.957-6.538 11.985 0 7.87 6.38 14.25 14.25 14.25 3.54 0 6.78-1.291 9.273-3.43z" fill="#2F95E5"/><path fill-rule="evenodd" clip-rule="evenodd" d="M16.524 35.555a4.524 4.524 0 1 0 0-9.047 3.965 3.965 0 0 0-.438 0 5.878 5.878 0 0 0-11.318 2.237v.033a3.62 3.62 0 0 0 1.804 6.756l9.952.021z" fill="#CDCDCD"/><path d="M16.074 26.53a5.768 5.768 0 0 0-.98-1.626A4.53 4.53 0 0 0 12 29.194c.005.296.037.59.098.878a4.53 4.53 0 0 1 3.976-3.543zm-12.14 2.92a4.08 4.08 0 0 0 2.064 2.898 5.83 5.83 0 0 1-1.22-3.576c-.313.183-.598.41-.844.677z" fill="#0F0F0F" fill-opacity=".2"/></svg>