<svg width="42" height="42" fill="none" xmlns="http://www.w3.org/2000/svg"><path fill-rule="evenodd" clip-rule="evenodd" d="M21.4 0A1.6 1.6 0 0 1 23 1.6v4.532a15.14 15.14 0 0 0-3.2-.085V1.6A1.6 1.6 0 0 1 21.4 0zm-9.98 9.458L8.393 6.433a1.6 1.6 0 1 0-2.263 2.263l3.058 3.057a15.096 15.096 0 0 1 2.23-2.295zM6.131 19H1.6a1.6 1.6 0 1 0 0 3.2h4.447a15.21 15.21 0 0 1 .085-3.2zM19.8 35.953V40.4a1.6 1.6 0 1 0 3.2 0v-4.532a15.134 15.134 0 0 1-3.2.085zm10.447-3.142l3.32 3.32a1.6 1.6 0 0 0 2.263-2.262l-3.288-3.288a15.097 15.097 0 0 1-2.295 2.23zM35.953 22.2H40.4a1.6 1.6 0 1 0 0-3.2h-4.532a15.134 15.134 0 0 1 .085 3.2zm-3.456-10.834l3.352-3.352a1.6 1.6 0 1 0-2.262-2.263l-3.395 3.394c.845.657 1.618 1.401 2.305 2.22z" fill="#FAD95A"/><path fill-rule="evenodd" clip-rule="evenodd" d="M21 33.158c6.714 0 12.158-5.443 12.158-12.158S27.714 8.842 21 8.842C14.285 8.842 8.842 14.285 8.842 21c0 1.037.13 2.043.374 3.004a5.678 5.678 0 0 1 5.466 3.521c.141-.008.282-.008.424 0a4.369 4.369 0 0 1 4.216 5.518c.548.076 1.108.115 1.678.115z" fill="#E0B300"/><mask id="a" maskUnits="userSpaceOnUse" x="8" y="8" width="26" height="26"><circle cx="21" cy="21" r="12.158" fill="#C79300"/></mask><g mask="url(#a)"><path fill-rule="evenodd" clip-rule="evenodd" d="M18.408 9.119A12.204 12.204 0 0 1 21 8.842c6.715 0 12.158 5.443 12.158 12.158 0 1.455-.255 2.851-.724 4.144-.835.182-1.702.277-2.591.277-6.715 0-12.158-5.443-12.158-12.158 0-1.455.255-2.85.724-4.144z" fill="#FAD95A"/></g><path fill-rule="evenodd" clip-rule="evenodd" d="M15.524 35.555a4.524 4.524 0 1 0 0-9.047 3.965 3.965 0 0 0-.438 0 5.878 5.878 0 0 0-11.318 2.237v.033a3.62 3.62 0 0 0 1.804 6.756l9.952.021z" fill="#CDCDCD"/><path d="M15.074 26.53a5.768 5.768 0 0 0-.98-1.626A4.53 4.53 0 0 0 11 29.194c.005.296.037.59.098.878a4.53 4.53 0 0 1 3.976-3.543zm-12.14 2.92a4.08 4.08 0 0 0 2.064 2.898 5.83 5.83 0 0 1-1.22-3.576c-.313.183-.598.41-.844.677z" fill="#0F0F0F" fill-opacity=".2"/></svg>