<svg width="42" height="42" fill="none" xmlns="http://www.w3.org/2000/svg"><path fill-rule="evenodd" clip-rule="evenodd" d="M15.795 3a1.18 1.18 0 0 1 1.181 1.181v3.345a11.172 11.172 0 0 0-2.362-.063V4.181A1.18 1.18 0 0 1 15.795 3zM8.428 9.981L6.195 7.748a1.181 1.181 0 0 0-1.67 1.67l2.257 2.257A11.14 11.14 0 0 1 8.428 9.98zm-3.902 7.043H1.181a1.18 1.18 0 1 0 0 2.362h3.282a11.228 11.228 0 0 1 .063-2.362zm2.224 8.26l-2.21 2.21a1.18 1.18 0 1 0 1.67 1.67l2.179-2.178a11.134 11.134 0 0 1-1.639-1.702zm7.864 4.253v3.282a1.18 1.18 0 1 0 2.362 0v-3.345a11.18 11.18 0 0 1-2.362.063zm7.711-2.319l2.45 2.45a1.18 1.18 0 1 0 1.67-1.67l-2.426-2.426a11.139 11.139 0 0 1-1.694 1.646zm4.212-7.832h3.282a1.18 1.18 0 1 0 0-2.362h-3.345a11.18 11.18 0 0 1 .063 2.362zm-2.551-7.997l2.474-2.474a1.18 1.18 0 1 0-1.67-1.67L22.284 9.75a11.141 11.141 0 0 1 1.702 1.639z" fill="#FAD95A"/><ellipse cx="15.499" cy="18.5" rx="8.974" ry="8.974" fill="#E0B300"/><mask id="a" maskUnits="userSpaceOnUse" x="6" y="9" width="19" height="19"><ellipse cx="15.499" cy="18.5" rx="8.974" ry="8.974" fill="#C79300"/></mask><g mask="url(#a)"><path fill-rule="evenodd" clip-rule="evenodd" d="M13.588 9.73a8.974 8.974 0 0 1 10.351 11.828A8.974 8.974 0 0 1 13.588 9.731z" fill="#FAD95A"/></g><path fill-rule="evenodd" clip-rule="evenodd" d="M34.334 29.777a6.333 6.333 0 1 0 0-12.667 5.523 5.523 0 0 0-.615 0 8.23 8.23 0 0 0-15.845 3.133v.046a5.067 5.067 0 0 0 2.526 9.458l13.934.03z" fill="#CDCDCD"/><path d="M33.704 17.14a8.074 8.074 0 0 0-1.373-2.275A6.341 6.341 0 0 0 28 20.873c.006.413.052.824.137 1.228a6.341 6.341 0 0 1 5.567-4.96zm-16.999 4.09a5.711 5.711 0 0 0 2.89 4.057 8.162 8.162 0 0 1-1.707-5.006c-.439.256-.838.575-1.183.948z" fill="#0F0F0F" fill-opacity=".2"/><path fill-rule="evenodd" clip-rule="evenodd" d="M34.386 31.511a1.6 1.6 0 0 1 .585 2.186l-.198.343a1.6 1.6 0 0 1-2.771-1.6l.198-.343a1.6 1.6 0 0 1 2.186-.586zm-2.577 4.463a1.6 1.6 0 0 1 .586 2.186l-.199.343a1.6 1.6 0 1 1-2.77-1.6l.197-.343a1.6 1.6 0 0 1 2.186-.586z" fill="#55AEED"/><path d="M23.652 33.647h-2.56a.813.813 0 0 1-.778-1.046l1.807-6.022a.813.813 0 0 1 .778-.579h3.516c.584 0 .977.596.747 1.133l-1.323 3.087a.812.812 0 0 0 .746 1.133h1.666c.681 0 1.06.788.634 1.32L23.824 39l.632-4.425a.813.813 0 0 0-.804-.928z" fill="#F0C10A"/><path d="M23.86 38.753l4.213-5.267a.813.813 0 0 0-.634-1.32h-1.666a.812.812 0 0 1-.747-1.133l1.324-3.088a.813.813 0 0 0-.747-1.133h-3.516l-.036.001.07-.234A.813.813 0 0 1 22.9 26h3.517c.583 0 .976.596.746 1.133L25.84 30.22a.812.812 0 0 0 .747 1.133h1.665c.682 0 1.06.788.635 1.32L23.824 39l.035-.247z" fill="#E0B300"/></svg>