<svg width="42" height="42" fill="none" xmlns="http://www.w3.org/2000/svg"><path fill-rule="evenodd" clip-rule="evenodd" d="M12.229 0c.505 0 .914.41.914.914v2.59a8.65 8.65 0 0 0-1.829-.048V.914c0-.505.41-.914.915-.914zM6.525 5.405L4.796 3.676a.914.914 0 1 0-1.293 1.293L5.25 6.716c.378-.481.805-.92 1.275-1.311zm-3.02 5.452H.914a.914.914 0 0 0 0 1.829h2.54a8.687 8.687 0 0 1 .05-1.829zm1.72 6.395l-1.71 1.712a.914.914 0 0 0 1.293 1.293l1.687-1.687a8.617 8.617 0 0 1-1.27-1.318zm6.09 3.292v2.542a.914.914 0 1 0 1.828 0v-2.59a8.654 8.654 0 0 1-1.829.048zm5.969-1.794l1.897 1.897a.914.914 0 0 0 1.293-1.293l-1.879-1.879c-.39.47-.83.897-1.311 1.275zm3.26-6.064h2.542a.914.914 0 1 0 0-1.829h-2.59a8.654 8.654 0 0 1 .048 1.829zM18.57 6.495l1.915-1.916a.914.914 0 1 0-1.293-1.293l-1.94 1.94c.483.375.925.8 1.318 1.269z" fill="#FAD95A"/><ellipse cx="12" cy="12" rx="6.947" ry="6.947" fill="#E0B300"/><mask id="a" maskUnits="userSpaceOnUse" x="5" y="5" width="14" height="14"><ellipse cx="12" cy="12" rx="6.947" ry="6.947" fill="#C79300"/></mask><g mask="url(#a)"><path fill-rule="evenodd" clip-rule="evenodd" d="M10.52 5.21a6.947 6.947 0 0 1 8.014 9.158A6.947 6.947 0 0 1 10.52 5.21z" fill="#FAD95A"/></g><path fill-rule="evenodd" clip-rule="evenodd" d="M29.594 29.555a8.595 8.595 0 0 0 0-17.19 7.53 7.53 0 0 0-.834 0 11.169 11.169 0 0 0-21.504 4.25v.062a6.876 6.876 0 0 0 3.428 12.837l18.91.041z" fill="#CDCDCD"/><path d="M28.741 12.405a10.963 10.963 0 0 0-1.863-3.088A8.606 8.606 0 0 0 21 17.47c.009.56.07 1.119.185 1.668a8.606 8.606 0 0 1 7.556-6.733zm-23.07 5.549a7.751 7.751 0 0 0 3.923 5.507 11.076 11.076 0 0 1-2.316-6.794 6.948 6.948 0 0 0-1.606 1.287z" fill="#0F0F0F" fill-opacity=".2"/><path fill-rule="evenodd" clip-rule="evenodd" d="M21.886 31.511a1.6 1.6 0 0 1 .585 2.186l-.198.343a1.6 1.6 0 0 1-2.771-1.6l.198-.343a1.6 1.6 0 0 1 2.186-.586zm-2.577 4.463a1.6 1.6 0 0 1 .586 2.186l-.198.343a1.6 1.6 0 1 1-2.772-1.6l.198-.343a1.6 1.6 0 0 1 2.186-.586zm10.077-4.463a1.6 1.6 0 0 1 .585 2.186l-.198.343a1.6 1.6 0 0 1-2.771-1.6l.198-.343a1.6 1.6 0 0 1 2.186-.586zm-2.577 4.463a1.6 1.6 0 0 1 .586 2.186l-.198.343a1.6 1.6 0 1 1-2.772-1.6l.198-.343a1.6 1.6 0 0 1 2.186-.586z" fill="#55AEED"/><path d="M8.494 33.412h-3.15a1 1 0 0 1-.957-1.288l2.223-7.411A1 1 0 0 1 7.568 24h4.328a1 1 0 0 1 .919 1.394l-1.629 3.8a1 1 0 0 0 .92 1.394h2.049a1 1 0 0 1 .78 1.625L8.707 40l.778-5.447a1 1 0 0 0-.99-1.141z" fill="#F0C10A"/><path d="M8.75 39.696l5.186-6.483a1 1 0 0 0-.781-1.625h-2.05a1 1 0 0 1-.92-1.394l1.63-3.8a1 1 0 0 0-.92-1.394H6.568l-.045.001.087-.288A1 1 0 0 1 7.568 24h4.327a1 1 0 0 1 .92 1.394l-1.63 3.8a1 1 0 0 0 .92 1.394h2.05a1 1 0 0 1 .78 1.625L8.707 40l.044-.304z" fill="#E0B300"/></svg>