<svg width="42" height="42" fill="none" xmlns="http://www.w3.org/2000/svg"><g clip-path="url(#clip0)"><path fill-rule="evenodd" clip-rule="evenodd" d="M30.047 27.11a9.048 9.048 0 0 0 0-18.095 7.932 7.932 0 0 0-.878 0A11.757 11.757 0 0 0 6.533 13.49v.065a7.238 7.238 0 0 0 3.609 13.512l19.905.044z" fill="#CDCDCD"/><path d="M29.148 9.058a11.541 11.541 0 0 0-1.96-3.25A9.059 9.059 0 0 0 21 14.39c.009.59.074 1.177.195 1.755a9.059 9.059 0 0 1 7.953-7.087zm-24.283 5.84a8.16 8.16 0 0 0 4.129 5.798 11.66 11.66 0 0 1-2.438-7.152 7.314 7.314 0 0 0-1.69 1.355z" fill="#0F0F0F" fill-opacity=".2"/><path fill-rule="evenodd" clip-rule="evenodd" d="M29.8 29.614a1.6 1.6 0 0 1 .585 2.186l-4 6.928a1.6 1.6 0 1 1-2.77-1.6l4-6.928a1.6 1.6 0 0 1 2.185-.586zm-9 0a1.6 1.6 0 0 1 .585 2.186l-4 6.928a1.6 1.6 0 1 1-2.77-1.6l4-6.928a1.6 1.6 0 0 1 2.185-.586z" fill="#2F95E5"/><path d="M7.494 33.412h-3.15a1 1 0 0 1-.957-1.288l2.223-7.411A1 1 0 0 1 6.568 24h4.328a1 1 0 0 1 .919 1.394l-1.629 3.8a1 1 0 0 0 .92 1.394h2.049a1 1 0 0 1 .78 1.625L7.707 40l.778-5.447a1 1 0 0 0-.99-1.141z" fill="#F0C10A"/><path d="M7.75 39.696l5.186-6.483a1 1 0 0 0-.781-1.625h-2.05a1 1 0 0 1-.92-1.394l1.63-3.8A1 1 0 0 0 9.895 25H5.568l-.045.001.087-.288A1 1 0 0 1 6.568 24h4.327a1 1 0 0 1 .92 1.394l-1.63 3.8a1 1 0 0 0 .92 1.394h2.05a1 1 0 0 1 .78 1.625L7.707 40l.044-.304z" fill="#E0B300"/></g><defs><clipPath id="clip0"><path d="M0 0h42v42H0V0z" fill="#fff"/></clipPath></defs></svg>