<svg width="42" height="42" fill="none" xmlns="http://www.w3.org/2000/svg"><path fill-rule="evenodd" clip-rule="evenodd" d="M12.229 0c.505 0 .914.41.914.914v2.59a8.65 8.65 0 0 0-1.829-.048V.914c0-.505.41-.914.915-.914zM6.525 5.405L4.796 3.676a.914.914 0 1 0-1.293 1.293L5.25 6.716c.378-.481.805-.92 1.275-1.311zm-3.02 5.452H.914a.914.914 0 0 0 0 1.829h2.54a8.687 8.687 0 0 1 .05-1.829zm1.72 6.395l-1.71 1.712a.914.914 0 0 0 1.293 1.293l1.687-1.687a8.617 8.617 0 0 1-1.27-1.318zm6.09 3.292v2.542a.914.914 0 1 0 1.828 0v-2.59a8.654 8.654 0 0 1-1.829.048zm5.969-1.794l1.897 1.897a.914.914 0 0 0 1.293-1.293l-1.879-1.879c-.39.47-.83.897-1.311 1.275zm3.26-6.064h2.542a.914.914 0 1 0 0-1.829h-2.59a8.654 8.654 0 0 1 .048 1.829zM18.57 6.495l1.915-1.916a.914.914 0 1 0-1.293-1.293l-1.94 1.94c.483.375.925.8 1.318 1.269z" fill="#FAD95A"/><ellipse cx="12" cy="12" rx="6.947" ry="6.947" fill="#E0B300"/><mask id="a" maskUnits="userSpaceOnUse" x="5" y="5" width="14" height="14"><ellipse cx="12" cy="12" rx="6.947" ry="6.947" fill="#C79300"/></mask><g mask="url(#a)"><path fill-rule="evenodd" clip-rule="evenodd" d="M10.52 5.21a6.947 6.947 0 0 1 8.014 9.158A6.947 6.947 0 0 1 10.52 5.21z" fill="#FAD95A"/></g><path d="M23.81 32.381a.19.19 0 1 1 .38 0v2.96a.19.19 0 0 0 .287.164l2.562-1.48a.19.19 0 0 1 .19.33l-2.562 1.48a.19.19 0 0 0 0 .33l2.563 1.48a.19.19 0 1 1-.19.33l-2.563-1.48a.19.19 0 0 0-.286.165v2.959a.19.19 0 0 1-.381 0v-2.96a.19.19 0 0 0-.286-.164l-2.563 1.48a.19.19 0 1 1-.19-.33l2.563-1.48a.19.19 0 0 0 0-.33l-2.563-1.48a.19.19 0 1 1 .19-.33l2.563 1.48a.19.19 0 0 0 .286-.165v-2.959z" fill="#55AEED" stroke="#55AEED" stroke-width="1.2"/><path fill-rule="evenodd" clip-rule="evenodd" d="M23.36 32.571a.19.19 0 0 0-.151.307l.55.715c.121.157.359.157.48 0l.55-.715a.19.19 0 0 0-.302-.232l-.092.12a.5.5 0 0 1-.792 0l-.092-.12a.19.19 0 0 0-.151-.075zm1.278 6.858a.19.19 0 0 0 .151-.307l-.55-.715a.303.303 0 0 0-.48 0l-.55.715a.19.19 0 0 0 .302.232l.092-.12a.5.5 0 0 1 .792 0l.093.12a.19.19 0 0 0 .15.075zm-3.927-4.59a.19.19 0 0 0 .19.285l.894-.12a.303.303 0 0 0 .24-.416l-.343-.833a.19.19 0 1 0-.352.145l.057.14a.5.5 0 0 1-.395.686l-.151.02a.19.19 0 0 0-.14.093zm6.578 2.322a.19.19 0 0 0-.19-.285l-.894.12a.303.303 0 0 0-.24.416l.343.833a.19.19 0 1 0 .352-.145l-.057-.14a.5.5 0 0 1 .395-.686l.151-.02a.19.19 0 0 0 .14-.093zm-5.938 1.107a.19.19 0 0 0 .341-.023l.344-.833a.303.303 0 0 0-.24-.416l-.894-.12a.19.19 0 0 0-.05.378l.15.02a.5.5 0 0 1 .396.686l-.058.14a.19.19 0 0 0 .011.168zm5.3-4.536a.19.19 0 0 0-.341.023l-.344.833a.303.303 0 0 0 .24.416l.894.12a.19.19 0 1 0 .05-.378l-.15-.02a.5.5 0 0 1-.396-.686l.058-.14a.19.19 0 0 0-.011-.168z" fill="#55AEED" stroke="#55AEED" stroke-width="1.2"/><path d="M14.287 33.029a.114.114 0 1 1 .228 0v1.775c0 .088.096.143.172.1l1.537-.889a.114.114 0 0 1 .115.198l-1.538.888a.114.114 0 0 0 0 .198l1.538.888a.114.114 0 1 1-.115.198l-1.537-.888a.114.114 0 0 0-.172.099v1.775a.114.114 0 1 1-.228 0v-1.775a.114.114 0 0 0-.172-.1l-1.537.889a.114.114 0 0 1-.115-.198l1.538-.888a.114.114 0 0 0 0-.198l-1.538-.888a.114.114 0 1 1 .115-.198l1.537.888a.114.114 0 0 0 .172-.099V33.03z" fill="#55AEED" stroke="#55AEED" stroke-width=".8"/><path fill-rule="evenodd" clip-rule="evenodd" d="M14.015 33.143a.114.114 0 0 0-.09.184l.33.428a.182.182 0 0 0 .288 0l.33-.428a.114.114 0 0 0-.181-.14l-.056.073a.3.3 0 0 1-.474 0l-.056-.073a.114.114 0 0 0-.09-.044zm.768 4.114a.114.114 0 0 0 .091-.184l-.33-.428a.182.182 0 0 0-.288 0l-.33.428a.114.114 0 1 0 .181.14l.055-.073a.3.3 0 0 1 .475 0l.056.073a.114.114 0 0 0 .09.044zm-2.356-2.753a.114.114 0 0 0 .114.17l.536-.071a.182.182 0 0 0 .144-.25l-.206-.5a.114.114 0 0 0-.211.087l.034.084a.3.3 0 0 1-.237.411l-.09.012a.114.114 0 0 0-.084.057zm3.945 1.392a.114.114 0 0 0-.114-.17l-.536.071a.182.182 0 0 0-.144.25l.206.5a.114.114 0 1 0 .211-.087l-.035-.084a.3.3 0 0 1 .238-.411l.09-.013a.115.115 0 0 0 .084-.056zm-3.56.665a.114.114 0 0 0 .204-.014l.207-.5a.182.182 0 0 0-.145-.25l-.536-.071a.114.114 0 0 0-.03.227l.09.011a.3.3 0 0 1 .238.412l-.035.084a.114.114 0 0 0 .007.1zm3.18-2.722a.114.114 0 0 0-.206.014l-.206.5a.182.182 0 0 0 .145.25l.536.071a.114.114 0 1 0 .03-.227l-.09-.011a.3.3 0 0 1-.238-.412l.035-.084a.114.114 0 0 0-.007-.1z" fill="#55AEED" stroke="#55AEED" stroke-width=".8"/><path fill-rule="evenodd" clip-rule="evenodd" d="M29.143 30a8.143 8.143 0 0 0 0-16.287 7.128 7.128 0 0 0-.79 0 10.581 10.581 0 0 0-20.372 4.028v.059a6.515 6.515 0 0 0 3.248 12.16l17.914.04z" fill="#CDCDCD"/><path d="M28.334 13.752a10.387 10.387 0 0 0-1.765-2.925A8.153 8.153 0 0 0 21 18.55a8.34 8.34 0 0 0 .175 1.58 8.153 8.153 0 0 1 7.159-6.377zM6.479 19.01a7.343 7.343 0 0 0 3.715 5.217A10.493 10.493 0 0 1 8 17.79a6.583 6.583 0 0 0-1.521 1.219z" fill="#0F0F0F" fill-opacity=".2"/></svg>