<svg width="42" height="42" fill="none" xmlns="http://www.w3.org/2000/svg"><g clip-path="url(#clip0)"><path fill-rule="evenodd" clip-rule="evenodd" d="M30.047 27.11a9.048 9.048 0 1 0 0-18.095 7.932 7.932 0 0 0-.878 0A11.757 11.757 0 0 0 6.533 13.49v.065a7.238 7.238 0 0 0 3.609 13.512l19.905.044z" fill="#CDCDCD"/><path d="M29.148 9.058a11.54 11.54 0 0 0-1.96-3.25A9.059 9.059 0 0 0 21 14.39c.009.59.074 1.177.195 1.755a9.059 9.059 0 0 1 7.953-7.087zm-24.283 5.84a8.16 8.16 0 0 0 4.129 5.798 11.66 11.66 0 0 1-2.438-7.152 7.314 7.314 0 0 0-1.69 1.355z" fill="#0F0F0F" fill-opacity=".2"/><path d="M9.81 30.381a.19.19 0 1 1 .38 0v2.96a.19.19 0 0 0 .287.164l2.562-1.48a.19.19 0 0 1 .19.33l-2.562 1.48a.19.19 0 0 0 0 .33l2.563 1.48a.19.19 0 1 1-.19.33l-2.563-1.48a.19.19 0 0 0-.286.165v2.959a.19.19 0 0 1-.381 0v-2.96a.19.19 0 0 0-.286-.164l-2.562 1.48a.19.19 0 1 1-.19-.33l2.562-1.48a.19.19 0 0 0 0-.33l-2.563-1.48a.19.19 0 0 1 .19-.33l2.563 1.48a.19.19 0 0 0 .286-.165v-2.959z" fill="#137ED9" stroke="#55AEED" stroke-width="1.2"/><path fill-rule="evenodd" clip-rule="evenodd" d="M9.36 30.571a.19.19 0 0 0-.151.307l.55.715c.121.157.359.157.48 0l.55-.715a.19.19 0 0 0-.302-.232l-.092.12a.5.5 0 0 1-.792 0l-.092-.12a.19.19 0 0 0-.151-.075zm1.278 6.858a.19.19 0 0 0 .151-.307l-.55-.715a.303.303 0 0 0-.48 0l-.55.715a.19.19 0 0 0 .302.232l.092-.12a.5.5 0 0 1 .792 0l.093.12a.19.19 0 0 0 .15.075zm-3.927-4.59a.19.19 0 0 0 .19.285l.894-.12a.303.303 0 0 0 .24-.416l-.343-.833a.19.19 0 0 0-.352.145l.057.14a.5.5 0 0 1-.395.686l-.151.02a.19.19 0 0 0-.14.093zm6.578 2.322a.19.19 0 0 0-.19-.285l-.894.12a.303.303 0 0 0-.24.416l.344.833a.19.19 0 1 0 .352-.145l-.058-.14a.5.5 0 0 1 .395-.686l.151-.02a.19.19 0 0 0 .14-.093zM7.35 36.267a.19.19 0 0 0 .341-.023l.344-.833a.303.303 0 0 0-.24-.416l-.894-.12a.19.19 0 1 0-.05.378l.15.02a.5.5 0 0 1 .396.686l-.058.14a.19.19 0 0 0 .011.168zm5.3-4.536a.19.19 0 0 0-.341.023l-.344.833a.303.303 0 0 0 .24.416l.894.12a.19.19 0 1 0 .05-.378l-.15-.02a.5.5 0 0 1-.396-.686l.058-.14a.19.19 0 0 0-.012-.168z" fill="#137ED9" stroke="#55AEED" stroke-width="1.2"/><path d="M20.762 31.476a.238.238 0 1 1 .476 0v3.7c0 .182.198.297.357.205l3.203-1.85a.238.238 0 1 1 .238.413l-3.203 1.85a.238.238 0 0 0 0 .412l3.203 1.85a.238.238 0 1 1-.238.412l-3.203-1.85a.238.238 0 0 0-.357.207v3.699a.238.238 0 1 1-.476 0v-3.7a.238.238 0 0 0-.358-.205l-3.203 1.85a.238.238 0 0 1-.238-.413l3.203-1.85a.238.238 0 0 0 0-.412l-3.203-1.85a.238.238 0 0 1 .238-.412l3.203 1.85a.238.238 0 0 0 .358-.207v-3.699z" fill="#137ED9" stroke="#55AEED" stroke-width="1.2"/><path fill-rule="evenodd" clip-rule="evenodd" d="M20.2 31.714a.238.238 0 0 0-.188.384l.687.893a.38.38 0 0 0 .601 0l.688-.893a.238.238 0 1 0-.377-.29l-.117.15a.624.624 0 0 1-.989 0l-.116-.15a.238.238 0 0 0-.188-.094zm1.6 8.572c.197 0 .309-.227.188-.384l-.687-.893a.38.38 0 0 0-.601 0l-.688.893a.238.238 0 1 0 .377.29l.117-.15a.624.624 0 0 1 .989 0l.116.15a.238.238 0 0 0 .188.094zm-4.912-5.737a.238.238 0 0 0 .238.355l1.117-.148a.38.38 0 0 0 .3-.52l-.43-1.043a.238.238 0 0 0-.44.181l.073.176a.624.624 0 0 1-.494.857l-.189.025a.238.238 0 0 0-.175.117zm8.222 2.902a.238.238 0 0 0-.238-.355l-1.117.149a.38.38 0 0 0-.3.52l.43 1.042a.238.238 0 0 0 .44-.181l-.073-.176a.624.624 0 0 1 .495-.857l.188-.025a.238.238 0 0 0 .175-.117zm-7.422 1.384a.238.238 0 0 0 .426-.028l.43-1.042a.38.38 0 0 0-.3-.52l-1.118-.15a.238.238 0 1 0-.063.472l.189.026c.406.054.65.478.494.856l-.072.176a.238.238 0 0 0 .014.21zm6.624-5.67a.238.238 0 0 0-.426.028l-.43 1.042a.38.38 0 0 0 .3.52l1.118.15a.238.238 0 1 0 .063-.472l-.189-.026a.624.624 0 0 1-.494-.856l.072-.176a.238.238 0 0 0-.014-.21z" fill="#137ED9" stroke="#55AEED" stroke-width="1.2"/><path d="M31.81 30.381a.19.19 0 1 1 .38 0v2.96a.19.19 0 0 0 .287.164l2.562-1.48a.19.19 0 0 1 .19.33l-2.562 1.48a.19.19 0 0 0 0 .33l2.563 1.48a.19.19 0 1 1-.19.33l-2.563-1.48a.19.19 0 0 0-.286.165v2.959a.19.19 0 0 1-.381 0v-2.96a.19.19 0 0 0-.286-.164l-2.563 1.48a.19.19 0 1 1-.19-.33l2.563-1.48a.19.19 0 0 0 0-.33l-2.563-1.48a.19.19 0 1 1 .19-.33l2.563 1.48a.19.19 0 0 0 .286-.165v-2.959z" fill="#137ED9" stroke="#55AEED" stroke-width="1.2"/><path fill-rule="evenodd" clip-rule="evenodd" d="M31.36 30.571a.19.19 0 0 0-.151.307l.55.715c.121.157.359.157.48 0l.55-.715a.19.19 0 0 0-.302-.232l-.092.12a.5.5 0 0 1-.792 0l-.092-.12a.19.19 0 0 0-.151-.075zm1.278 6.858a.19.19 0 0 0 .151-.307l-.55-.715a.303.303 0 0 0-.48 0l-.55.715a.19.19 0 0 0 .302.232l.092-.12a.5.5 0 0 1 .792 0l.092.12a.19.19 0 0 0 .151.075zm-3.927-4.59a.19.19 0 0 0 .19.285l.894-.12a.303.303 0 0 0 .24-.416l-.343-.833a.19.19 0 1 0-.352.145l.057.14a.5.5 0 0 1-.395.686l-.151.02a.19.19 0 0 0-.14.093zm6.578 2.322a.19.19 0 0 0-.19-.285l-.894.12a.303.303 0 0 0-.24.416l.343.833a.19.19 0 1 0 .352-.145l-.057-.14a.5.5 0 0 1 .395-.686l.151-.02a.19.19 0 0 0 .14-.093zm-5.938 1.107a.19.19 0 0 0 .341-.023l.344-.833a.303.303 0 0 0-.24-.416l-.894-.12a.19.19 0 0 0-.05.378l.15.02a.5.5 0 0 1 .396.686l-.058.14a.19.19 0 0 0 .011.168zm5.3-4.536a.19.19 0 0 0-.342.023l-.343.833a.303.303 0 0 0 .24.416l.894.12a.19.19 0 1 0 .05-.378l-.15-.02a.5.5 0 0 1-.396-.686l.058-.14a.19.19 0 0 0-.011-.168z" fill="#137ED9" stroke="#55AEED" stroke-width="1.2"/></g><defs><clipPath id="clip0"><path d="M0 0h42v42H0V0z" fill="#fff"/></clipPath></defs></svg>