<svg width="42" height="42" fill="none" xmlns="http://www.w3.org/2000/svg"><g clip-path="url(#clip0)"><path d="M23.81 30.381a.19.19 0 1 1 .38 0v2.96a.19.19 0 0 0 .287.164l2.562-1.48a.19.19 0 0 1 .19.33l-2.562 1.48a.19.19 0 0 0 0 .33l2.563 1.48a.19.19 0 1 1-.19.33l-2.563-1.48a.19.19 0 0 0-.286.165v2.959a.19.19 0 0 1-.381 0v-2.96a.19.19 0 0 0-.286-.164l-2.563 1.48a.19.19 0 1 1-.19-.33l2.563-1.48a.19.19 0 0 0 0-.33l-2.563-1.48a.19.19 0 1 1 .19-.33l2.563 1.48a.19.19 0 0 0 .286-.165v-2.959z" fill="#55AEED" stroke="#55AEED" stroke-width="1.2"/><path fill-rule="evenodd" clip-rule="evenodd" d="M23.36 30.571a.19.19 0 0 0-.151.307l.55.715c.121.157.359.157.48 0l.55-.715a.19.19 0 0 0-.302-.232l-.092.12a.5.5 0 0 1-.792 0l-.092-.12a.19.19 0 0 0-.151-.075zm1.278 6.858a.19.19 0 0 0 .151-.307l-.55-.715a.303.303 0 0 0-.48 0l-.55.715a.19.19 0 0 0 .302.232l.092-.12a.5.5 0 0 1 .792 0l.093.12a.19.19 0 0 0 .15.075zm-3.927-4.59a.19.19 0 0 0 .19.285l.894-.12a.303.303 0 0 0 .24-.416l-.343-.833a.19.19 0 1 0-.352.145l.057.14a.5.5 0 0 1-.395.686l-.151.02a.19.19 0 0 0-.14.093zm6.578 2.322a.19.19 0 0 0-.19-.285l-.894.12a.303.303 0 0 0-.24.416l.343.833a.19.19 0 1 0 .352-.145l-.057-.14a.5.5 0 0 1 .395-.686l.151-.02a.19.19 0 0 0 .14-.093zm-5.938 1.107a.19.19 0 0 0 .341-.023l.344-.833a.303.303 0 0 0-.24-.416l-.894-.12a.19.19 0 0 0-.05.378l.15.02a.5.5 0 0 1 .396.686l-.058.14a.19.19 0 0 0 .011.168zm5.3-4.536a.19.19 0 0 0-.341.023l-.344.833a.303.303 0 0 0 .24.416l.894.12a.19.19 0 1 0 .05-.378l-.15-.02a.5.5 0 0 1-.396-.686l.058-.14a.19.19 0 0 0-.011-.168z" fill="#55AEED" stroke="#55AEED" stroke-width="1.2"/><path d="M14.287 31.029a.114.114 0 1 1 .228 0v1.775c0 .088.096.143.172.1l1.537-.889a.114.114 0 0 1 .115.198l-1.538.888a.114.114 0 0 0 0 .198l1.538.888a.114.114 0 1 1-.115.198l-1.537-.888a.114.114 0 0 0-.172.099v1.775a.114.114 0 1 1-.228 0v-1.775a.114.114 0 0 0-.172-.1l-1.537.889a.114.114 0 0 1-.115-.198l1.538-.888a.114.114 0 0 0 0-.198l-1.538-.888a.114.114 0 1 1 .115-.198l1.537.888a.114.114 0 0 0 .172-.099V31.03z" fill="#55AEED" stroke="#55AEED" stroke-width=".8"/><path fill-rule="evenodd" clip-rule="evenodd" d="M14.015 31.143a.114.114 0 0 0-.09.184l.33.428a.182.182 0 0 0 .288 0l.33-.428a.114.114 0 0 0-.181-.14l-.056.073a.3.3 0 0 1-.474 0l-.056-.073a.114.114 0 0 0-.09-.044zm.768 4.114a.114.114 0 0 0 .091-.184l-.33-.428a.182.182 0 0 0-.288 0l-.33.428a.114.114 0 1 0 .181.14l.055-.073a.3.3 0 0 1 .475 0l.056.073a.114.114 0 0 0 .09.044zm-2.356-2.753a.114.114 0 0 0 .114.17l.536-.071a.182.182 0 0 0 .144-.25l-.206-.5a.114.114 0 0 0-.211.087l.034.084a.3.3 0 0 1-.237.411l-.09.012a.114.114 0 0 0-.084.057zm3.945 1.392a.114.114 0 0 0-.114-.17l-.536.071a.182.182 0 0 0-.144.25l.206.5a.114.114 0 1 0 .211-.087l-.035-.084a.3.3 0 0 1 .238-.411l.09-.013a.115.115 0 0 0 .084-.056zm-3.56.665a.114.114 0 0 0 .204-.014l.207-.5a.182.182 0 0 0-.145-.25l-.536-.071a.114.114 0 0 0-.03.227l.09.011a.3.3 0 0 1 .238.412l-.035.084a.114.114 0 0 0 .007.1zm3.18-2.722a.114.114 0 0 0-.206.014l-.206.5a.182.182 0 0 0 .145.25l.536.071a.114.114 0 1 0 .03-.227l-.09-.011a.3.3 0 0 1-.238-.412l.035-.084a.114.114 0 0 0-.007-.1z" fill="#55AEED" stroke="#55AEED" stroke-width=".8"/><path d="M16.857 9.54A6.954 6.954 0 0 1 8.46 1.143a6.954 6.954 0 1 0 8.397 8.397z" fill="#82C5F4"/><path d="M14.622 13.184a6.954 6.954 0 0 1-8.288-11.13 6.954 6.954 0 1 0 8.288 11.13z" fill="#2F95E5"/><path fill-rule="evenodd" clip-rule="evenodd" d="M30.047 27.11a9.048 9.048 0 1 0 0-18.095 7.932 7.932 0 0 0-.878 0A11.757 11.757 0 0 0 6.533 13.49v.065a7.238 7.238 0 0 0 3.609 13.512l19.905.044z" fill="#CDCDCD"/><path d="M29.148 9.058a11.54 11.54 0 0 0-1.96-3.25A9.059 9.059 0 0 0 21 14.39c.009.59.074 1.177.195 1.755a9.059 9.059 0 0 1 7.953-7.087zm-24.283 5.84a8.16 8.16 0 0 0 4.129 5.798 11.66 11.66 0 0 1-2.438-7.152 7.314 7.314 0 0 0-1.69 1.355z" fill="#0F0F0F" fill-opacity=".2"/></g><defs><clipPath id="clip0"><path d="M0 0h42v42H0V0z" fill="#fff"/></clipPath></defs></svg>