<svg width="42" height="42" fill="none" xmlns="http://www.w3.org/2000/svg"><g clip-path="url(#clip0)"><path fill-rule="evenodd" clip-rule="evenodd" d="M30.047 27.11a9.048 9.048 0 1 0 0-18.095 7.932 7.932 0 0 0-.878 0A11.757 11.757 0 0 0 6.533 13.49v.065a7.238 7.238 0 0 0 3.609 13.512l19.905.044z" fill="#CDCDCD"/><path d="M29.148 9.058a11.54 11.54 0 0 0-1.96-3.25A9.059 9.059 0 0 0 21 14.39c.009.59.074 1.177.195 1.755a9.059 9.059 0 0 1 7.953-7.087zm-24.283 5.84a8.16 8.16 0 0 0 4.129 5.798 11.66 11.66 0 0 1-2.438-7.152 7.314 7.314 0 0 0-1.69 1.355z" fill="#0F0F0F" fill-opacity=".2"/><path d="M7.286 30.429a.214.214 0 1 1 .428 0v3.329c0 .165.179.268.322.185l2.883-1.664a.214.214 0 1 1 .214.37L8.25 34.315a.214.214 0 0 0 0 .372l2.883 1.664a.214.214 0 0 1-.214.371l-2.883-1.664a.214.214 0 0 0-.322.185v3.33a.214.214 0 1 1-.428 0v-3.33a.214.214 0 0 0-.322-.185L4.081 36.72a.214.214 0 0 1-.214-.37l2.883-1.665a.214.214 0 0 0 0-.372L3.867 32.65a.214.214 0 1 1 .214-.371l2.883 1.664a.214.214 0 0 0 .322-.185v-3.33z" fill="#55AEED" stroke="#55AEED" stroke-width="1.2"/><path fill-rule="evenodd" clip-rule="evenodd" d="M6.781 30.643a.214.214 0 0 0-.17.345l.619.804a.341.341 0 0 0 .54 0l.62-.804a.214.214 0 1 0-.34-.261l-.104.135a.562.562 0 0 1-.89 0l-.105-.136a.214.214 0 0 0-.17-.083zm1.438 7.714a.214.214 0 0 0 .17-.345l-.619-.804a.341.341 0 0 0-.54 0l-.62.804a.214.214 0 1 0 .34.262l.104-.136a.562.562 0 0 1 .89 0l.105.136c.04.052.103.083.17.083zm-4.42-5.163a.214.214 0 0 0 .215.32l1.005-.134a.341.341 0 0 0 .27-.468l-.386-.938a.214.214 0 1 0-.396.163l.065.158c.14.341-.08.723-.445.771l-.17.023a.214.214 0 0 0-.157.105zm7.4 2.612a.214.214 0 0 0-.215-.32l-1.005.134a.341.341 0 0 0-.27.468l.386.938c.068.164.295.18.384.025a.214.214 0 0 0 .013-.188l-.066-.158a.562.562 0 0 1 .445-.771l.17-.023a.214.214 0 0 0 .157-.105zM4.52 37.05a.214.214 0 0 0 .383-.025l.387-.938a.341.341 0 0 0-.27-.468l-1.006-.134a.214.214 0 0 0-.057.425l.17.023c.366.048.586.43.445.77l-.065.159a.214.214 0 0 0 .013.188zm5.962-5.103a.214.214 0 0 0-.383.026l-.387.938a.341.341 0 0 0 .27.468l1.006.134a.214.214 0 1 0 .057-.425l-.17-.023a.562.562 0 0 1-.445-.77l.065-.159a.214.214 0 0 0-.013-.189z" fill="#55AEED" stroke="#55AEED" stroke-width="1.2"/><path fill-rule="evenodd" clip-rule="evenodd" d="M29.8 29.614a1.6 1.6 0 0 1 .585 2.186l-4 6.928a1.6 1.6 0 1 1-2.77-1.6l4-6.928a1.6 1.6 0 0 1 2.185-.586zm-9 0a1.6 1.6 0 0 1 .585 2.186l-4 6.928a1.6 1.6 0 1 1-2.77-1.6l4-6.928a1.6 1.6 0 0 1 2.185-.586z" fill="#55AEED"/></g><defs><clipPath id="clip0"><path d="M0 0h42v42H0V0z" fill="#fff"/></clipPath></defs></svg>