<svg width="126" height="96" fill="none" xmlns="http://www.w3.org/2000/svg"><g clip-path="url(#clip0)"><path d="M58.365 0H4.248A4.26 4.26 0 0 0 0 4.248V58.45a4.26 4.26 0 0 0 4.248 4.247h54.117a4.26 4.26 0 0 0 4.247-4.247V4.248A4.26 4.26 0 0 0 58.365 0zm2.846 58.45c0 1.529-1.275 2.76-2.761 2.76H4.29c-1.529 0-2.76-1.274-2.76-2.76V4.248c0-1.53 1.274-2.761 2.76-2.761h54.117c1.53 0 2.761 1.274 2.761 2.76l.043 54.203z" fill="#fff"/><path d="M61.21 58.45c0 1.529-1.274 2.76-2.76 2.76H4.29c-1.529 0-2.76-1.274-2.76-2.76V4.248c0-1.53 1.274-2.761 2.76-2.761h54.117c1.53 0 2.761 1.274 2.761 2.76l.043 54.203z" fill="#00205B"/><path d="M38.528 51.398c1.359-.552 2.038-1.487 2.038-3.016v-.255c-.127-2.038-1.741-3.016-3.653-3.016h-5.14v10.28h2.464v-3.695h1.742l1.911 3.695h2.761l-2.123-3.993zm-2.04-1.444h-2.42v-3.016h2.42c.935 0 1.487.425 1.487 1.487.085 1.02-.467 1.529-1.486 1.529zm-17.84-4.8h-2.761l-1.742 4.503-1.911-3.314c-.383-.594-1.275-1.147-2.04-1.147H8.794l4.248 7.434-1.105 2.889h1.487c.722 0 1.53-.553 1.784-1.232l3.44-9.133zm7.391 5.777h-3.483l1.486-3.865c.17-.425.425-.425.553 0l1.444 3.865zm.637 1.784l1.062 2.761h2.591l-3.44-9.048c-.255-.68-1.105-1.232-1.785-1.232H22.09l-3.866 10.28h1.274c.723 0 1.53-.552 1.784-1.232l.553-1.486h4.842v-.043zm20.432-5.607c.17-.425.425-.425.552 0l1.487 3.865h-3.483l1.444-3.865zm-2.081 5.607h4.8l.552 1.487c.255.68 1.062 1.232 1.784 1.232h1.274l-3.95-10.28h-2.974c-.722 0-1.529.552-1.784 1.232l-3.44 9.048h2.59l1.148-2.719zm-4.928-26.719c.128.085.425.085.722.085h4.545c-2.293-2.038-3.695-7.093-3.695-10.11 0-3.1 1.402-8.113 3.695-10.109h-4.545c-.255 0-.594 0-.722.085 0 0-4.078 3.865-4.078 10.025 0 6.159 4.078 10.025 4.078 10.025zm-9.812 0c.127.085.424.085.722.085h4.502c-2.293-2.038-3.695-7.093-3.695-10.11 0-3.1 1.487-8.113 3.695-10.109H31.01c-.255 0-.595 0-.722.085 0 0-4.078 3.95-4.078 10.025.085 6.074 4.078 10.025 4.078 10.025zm-9.728 0c.128.085.425.085.68.085h4.545c-2.294-2.038-3.696-7.093-3.696-10.11 0-3.1 1.402-8.113 3.696-10.109h-4.545c-.255 0-.595 0-.68.085 0 0-4.078 3.865-4.078 10.025 0 6.159 4.078 10.025 4.078 10.025z" fill="#fff"/><path d="M52.503 34.067c-.68-1.401-1.912-3.823-2.082-4.63 0 0-.722-1.826 1.232-2.166.807-.128 1.36-.722 1.402-1.487v-.934a.274.274 0 0 0-.255-.255h-3.186c-.085 0-2.294.255-2.294 2.973-.085 4.63 0 5.183-1.232 5.437-.127 0-.17-.127-.17-.17v-.127a4.433 4.433 0 0 0-4.46-4.46c-1.231 0-2.42.552-3.143 1.36 0 .084-.127.127-.17.127-.085 0-.17-.085-.17-.128-.807-.807-1.911-1.36-3.143-1.36-1.232 0-2.421.553-3.144 1.36 0 .085-.127.128-.17.128-.084 0-.17-.085-.17-.128-.806-.807-1.91-1.36-3.143-1.36-1.232 0-2.421.553-3.143 1.36 0 .085-.128.128-.17.128-.085 0-.17-.085-.17-.128-.807-.807-1.911-1.36-3.143-1.36a4.433 4.433 0 0 0-4.46 4.461v.127c0 .128-.128.17-.255.17-1.232-.17-1.147-.807-1.232-5.437 0-2.718-2.209-2.973-2.294-2.973h-3.313a.274.274 0 0 0-.255.255v.934c.085.807.552 1.402 1.402 1.487 1.954.297 1.231 2.166 1.231 2.166-.17.807-1.401 3.186-2.08 4.63-.426.935-1.36 3.144.084 5.352.807 1.275 1.784 2.422 5.225 2.422H47.49c3.44.085 4.46-1.105 5.225-2.422 1.104-2.166.255-4.46-.212-5.352zM21.239 35.3c-1.487 0-2.634-1.147-2.634-2.633 0-1.487 1.147-2.634 2.634-2.634 1.487 0 2.633 1.147 2.633 2.634.043 1.444-1.231 2.633-2.633 2.633zm6.711 0c-1.486 0-2.633-1.147-2.633-2.633 0-1.487 1.147-2.634 2.633-2.634 1.487 0 2.634 1.147 2.634 2.634a2.62 2.62 0 0 1-2.634 2.633zm6.712 0c-1.487 0-2.634-1.147-2.634-2.633 0-1.487 1.147-2.634 2.634-2.634 1.487 0 2.633 1.147 2.633 2.634a2.62 2.62 0 0 1-2.633 2.633zm6.754 0c-1.487 0-2.634-1.147-2.634-2.633 0-1.487 1.147-2.634 2.634-2.634 1.487 0 2.634 1.147 2.634 2.634.042 1.444-1.147 2.633-2.634 2.633zM10.704 92.474c0 .128-.127.17-.17.17H8.072a.485.485 0 0 1-.298-.127l-3.313-4.46h-.68v4.29c0 .127-.127.17-.254.17H1.614c-.127 0-.255-.085-.255-.17V82.025c0-.128.128-.17.255-.17h1.954c.128 0 .255.085.255.17v4.248h.68l3.185-4.376c.085-.085.128-.127.255-.127h2.337c.085 0 .17.127.17.17 0 .085 0 .085-.085.127l-3.866 4.928 4.12 5.182c.085.255.085.297.085.297zm7.519.255h-1.784c-.17 0-.255-.085-.255-.17v-5.055c0-.807-.297-1.062-.977-1.062-.68 0-1.487.17-1.487.17v5.99c0 .127-.085.17-.255.17h-1.784c-.17 0-.254-.085-.254-.17v-6.414c0-.553.382-.722 1.231-.935.723-.17 1.912-.382 2.761-.382 1.827 0 2.974.425 2.974 2.294v5.352c.085.17-.043.212-.17.212zm5.097.213c-3.313 0-3.695-1.784-3.695-3.993 0-2.294.424-4.078 3.695-4.078s3.696 1.784 3.696 4.078c.085 2.166-.34 3.993-3.696 3.993zm0-6.627c-1.359 0-1.401.807-1.401 2.506 0 1.7.084 2.506 1.401 2.506 1.36 0 1.402-.807 1.402-2.506.043-1.699-.042-2.506-1.402-2.506zm15.335 6.16a.274.274 0 0 1-.255.254h-3.1c-.17 0-.256-.127-.298-.255l-.977-5.437-1.062 5.437a.274.274 0 0 1-.255.255h-3.1c-.17 0-.256-.127-.256-.255l-1.529-7.094v-.084c0-.17.085-.298.255-.298h1.657c.17 0 .297.085.382.255l.977 6.032h.382l.935-5.65c0-.17.127-.255.297-.255h2.761c.17 0 .255.086.297.255l.977 5.65h.383l.934-6.032c0-.17.17-.255.297-.255h1.615a.29.29 0 0 1 .297.298v.084l-1.614 7.094zm6.371-.043c0 .17-.127.17-.17.17-.127.085-.552.17-1.401.17-1.487 0-2.209-.85-2.209-2.04v-8.495c0-.17.085-.297.255-.297l1.657-.297h.084c.17 0 .255.084.255.254v8.623c0 .51.298.68.553.68.254 0 .382 0 .51-.085h.084c.128 0 .17.085.17.17l.17.977.042.17zm7.689-2.974c0 .17-.085.383-.382.383h-4.758c0 .594.17.977.595 1.232.382.17.85.297 1.614.297.934 0 1.657-.255 2.039-.382h.085c.127 0 .17.085.255.255l.17.807v.085c0 .127-.085.17-.17.254-.51.17-1.487.51-2.719.51-2.846 0-4.078-1.062-4.078-3.993 0-2.846.85-4.078 3.696-4.078 1.487 0 2.336.383 2.888.977.553.68.722 1.657.722 2.889.043.212.043.552.043.764zm-2.209-1.104c0-.382 0-.722-.085-1.062-.17-.722-.552-.977-1.274-.977-.935 0-1.274.297-1.402.935-.085.382-.085.722-.085 1.147h2.889l-.043-.043zm9.6 4.205c-.722.17-1.614.383-2.506.383-2.889 0-3.866-.935-3.866-3.95 0-2.507.595-4.079 3.144-4.079 1.062 0 1.826.255 1.954.255l-.17-.934v-1.827c0-.17.085-.297.297-.382l1.657-.298h.085c.17 0 .255.085.255.255v9.473c.042.34 0 .85-.85 1.104zm-1.36-6.032s-.594-.127-1.146-.127c-1.104 0-1.487.17-1.487 2.464 0 2.336.425 2.59 1.614 2.59.553 0 1.105-.17 1.105-.17v-4.757h-.085zm11.512-.382c0 .085 0 .128-.127.17-.297.17-.68.297-1.062.297-.255 0-.297 0-.595-.085.255.17.595.595.595 1.275 0 1.784-1.402 2.421-3.143 2.421h-.85c-.51 0-.68.255-.68.595 0 .51.383.552 1.105.552h1.402c1.274 0 2.718.297 2.718 2.039 0 1.826-1.614 2.591-3.823 2.591-2.506 0-3.823-.425-3.823-1.826 0-1.36 1.105-1.402 1.614-1.53v-.255c-.68-.17-1.359-.127-1.359-1.274 0-.977.722-1.104 1.657-1.274-.51-.128-1.657-.425-1.657-2.21 0-2.08 1.274-2.76 3.44-2.76.935 0 1.275.127 1.912.297.17.085.383.085.553.085.17 0 .51 0 .722-.085.255-.085.552-.17.722-.297.085 0 .127-.085.127-.085.085 0 .128.085.17.17l.382 1.19c-.084-.086 0 0 0 0zm-4.078 6.84h-.977c-.51 0-1.104.084-1.104.806 0 .722.595.935 1.657.935.934 0 1.614-.17 1.614-.977.042-.722-.51-.765-1.19-.765zm-.467-6.925c-1.062 0-1.274.51-1.274 1.487 0 .977.297 1.487 1.274 1.487.977 0 1.275-.51 1.275-1.487 0-.977-.298-1.487-1.275-1.487zm12.191 3.398c0 .17-.085.383-.382.383h-4.758c0 .594.17.977.595 1.232.383.17.85.297 1.614.297.935 0 1.657-.255 2.04-.382h.084c.128 0 .17.085.255.255l.17.807v.085c0 .127-.085.17-.17.254-.51.17-1.487.51-2.719.51-2.846 0-4.077-1.062-4.077-3.993 0-2.846.85-4.078 3.695-4.078 1.487 0 2.337.383 2.889.977.552.68.722 1.657.722 2.889.042.212.042.552.042.764zm-2.251-1.104c0-.382 0-.722-.085-1.062-.17-.722-.552-.977-1.274-.977-.935 0-1.275.297-1.402.935-.085.382-.085.722-.085 1.147h2.888l-.042-.043zm16.312-2.209c0 .085 0 .128-.128.17-.297.17-.68.297-1.062.297-.255 0-.297 0-.595-.085.255.17.595.595.595 1.275 0 1.784-1.402 2.421-3.143 2.421h-.85c-.51 0-.68.255-.68.595 0 .51.383.552 1.105.552h1.402c1.274 0 2.718.297 2.718 2.039 0 1.826-1.614 2.591-3.823 2.591-2.506 0-3.823-.425-3.823-1.826 0-1.36 1.105-1.402 1.615-1.53v-.255c-.68-.17-1.36-.127-1.36-1.274 0-.977.722-1.104 1.657-1.274-.51-.128-1.657-.425-1.657-2.21 0-2.08 1.275-2.76 3.441-2.76.934 0 1.274.127 1.912.297.17.085.382.085.552.085.17 0 .51 0 .722-.085.255-.085.552-.17.722-.297.085 0 .127-.085.127-.085.085 0 .128.085.17.17l.383 1.19c0-.086 0 0 0 0zm-3.993 6.84h-.977c-.51 0-1.105.084-1.105.806 0 .722.595.935 1.657.935.934 0 1.614-.17 1.614-.977 0-.722-.51-.765-1.19-.765zm-.552-6.925c-1.063 0-1.275.51-1.275 1.487 0 .977.297 1.487 1.275 1.487.976 0 1.274-.51 1.274-1.487 0-.977-.213-1.487-1.275-1.487zm9.43.467c-.85 0-1.615.128-1.827.17v5.777c0 .128-.085.17-.255.17h-1.784c-.127 0-.255-.085-.255-.17V86.06c0-.425.17-.552.68-.722.424-.17 1.104-.255 1.784-.382.425-.085.934-.128 1.402-.17h.127c.17 0 .17 0 .297.085.085 0 .128.127.128.255v1.062c-.043.212-.043.34-.297.34zm4.502 6.415c-3.313 0-3.695-1.784-3.695-3.993 0-2.294.424-4.078 3.695-4.078s3.696 1.784 3.696 4.078c.042 2.166-.383 3.993-3.696 3.993zm0-6.627c-1.36 0-1.402.807-1.402 2.506 0 1.7.085 2.506 1.402 2.506 1.359 0 1.402-.807 1.402-2.506 0-1.699-.043-2.506-1.402-2.506zm15.335 6.16c0 .127-.128.254-.255.254h-3.101c-.17 0-.255-.127-.297-.255l-.977-5.437-1.062 5.437c0 .128-.128.255-.255.255h-3.059c-.17 0-.254-.127-.254-.255l-1.53-7.094v-.084c0-.17.085-.298.255-.298h1.657c.17 0 .297.085.382.255l.977 6.032h.382l.935-5.65c0-.17.127-.255.297-.255h2.761c.17 0 .255.086.298.255l.977 5.65h.382l.85-6.032c0-.17.169-.255.297-.255h1.614a.29.29 0 0 1 .297.298v.084l-1.571 7.094zm5.097.382c-1.274 0-2.464-.298-2.719-.425-.085 0-.169-.085-.169-.17v-.085l.169-.934c0-.128.085-.17.17-.17h.085c.17.085 1.232.382 2.167.382.679 0 1.232-.17 1.232-.85 0-.722-.425-.722-1.232-.934-.977-.17-2.507-.383-2.507-2.421 0-2.167 1.912-2.422 3.144-2.422 1.147 0 2.081.255 2.421.383.128 0 .17.127.17.17v.085l-.17.977c0 .127-.127.17-.17.17h-.085c-.17 0-1.062-.17-1.784-.17-.552 0-1.274.127-1.274.722 0 .722.722.807 1.487.934 1.104.17 2.293.51 2.293 2.336-.042 1.87-1.444 2.422-3.228 2.422z" fill="#fff"/></g><defs><clipPath id="clip0"><path fill="#fff" d="M0 0H125.31V96H0z"/></clipPath></defs></svg>