<svg width="24" height="24" viewBox="0 0 24 24" fill="none" xmlns="http://www.w3.org/2000/svg">
<path d="M2.9998 12C2.9998 7.0275 7.0273 3 11.9998 3C16.9723 3 20.9998 7.0275 20.9998 12C20.9998 16.9725 16.9723 21 11.9998 21C7.02731 21 2.9998 16.9725 2.9998 12Z" fill="#CCF0AD" stroke="#46A314" stroke-width="2.4"/>
<path fill-rule="evenodd" clip-rule="evenodd" d="M17.8405 8.1437C18.3134 8.608 18.3204 9.36776 17.8561 9.84069L11.3309 16.4871C11.1053 16.7169 10.7967 16.8464 10.4746 16.8464H9.54447C9.22917 16.8464 8.92655 16.7223 8.70201 16.501L6.15735 13.9924C5.68539 13.5271 5.67997 12.7673 6.14525 12.2953C6.61052 11.8234 7.3703 11.818 7.84226 12.2832L10.0033 14.4136L16.1435 8.15932C16.6078 7.6864 17.3676 7.67941 17.8405 8.1437Z" fill="#46A314"/>
</svg>
