<svg width="24" height="24" xmlns="http://www.w3.org/2000/svg"><path fill-rule="evenodd" clip-rule="evenodd" d="M4.2 12a7.8 7.8 0 1 1 14.112 4.583v-.431c0-.273-.091-.544-.27-.768a6.051 6.051 0 0 0-.942-.938c-.48-.379-1.176-.79-1.98-.79-.097 0-.19 0-.28-.002.177-.25.345-.549.488-.92.272-.709.44-1.648.44-2.966 0-.863-.235-1.804-.847-2.54C14.294 6.474 13.324 6 12 6c-1.325 0-2.294.474-2.921 1.228-.612.736-.847 1.677-.847 2.54 0 1.232.149 2.132.41 2.842.153.414.34.752.543 1.044-.11.002-.228.002-.353.002-.771 0-1.457.409-1.929.78a5.579 5.579 0 0 0-.954.96 1.228 1.228 0 0 0-.261.756v.431A7.765 7.765 0 0 1 4.2 12zm3.936 6.777A7.764 7.764 0 0 0 12 19.8c1.435 0 2.78-.388 3.936-1.065v-2.139a3.355 3.355 0 0 0-.404-.344 1.563 1.563 0 0 0-.243-.147.415.415 0 0 0-.065-.025h-.031c-.494 0-1.174 0-1.767-.264a2.09 2.09 0 0 1-.905-.726c-.267-.38-.425-.878-.425-1.506 0-.327.137-.64.36-.863.272-.272.476-.48.636-.86.166-.395.3-1.017.3-2.117 0-.373-.075-.707-.25-.936-.15-.2-.442-.408-1.094-.408-.652 0-.944.209-1.095.408-.174.23-.25.563-.25.936 0 1.113.135 1.741.3 2.135.16.376.36.578.627.833l.01.009c.223.223.36.536.36.863 0 .628-.159 1.126-.425 1.506a2.09 2.09 0 0 1-.905.726c-.593.265-1.249.264-1.723.264h-.043.002s-.029.003-.092.03c-.07.03-.156.08-.256.148a3.54 3.54 0 0 0-.422.347v2.172zM12 1.8C6.367 1.8 1.8 6.367 1.8 12c0 5.633 4.567 10.2 10.2 10.2 5.633 0 10.2-4.567 10.2-10.2 0-5.633-4.567-10.2-10.2-10.2z"/></svg>