<svg width="24" height="24" xmlns="http://www.w3.org/2000/svg"><path fill-rule="evenodd" clip-rule="evenodd" d="M19.075 7.661a7.677 7.677 0 0 1-1.524 6.976 7.65 7.65 0 0 1-3.598 2.397 6.432 6.432 0 0 0 5.122-9.373zM5.903 15.35l-.331.406.416.618.343-.408a8.789 8.789 0 0 1-.428-.616zm2.132 2.319l-2.778 3.31a1.2 1.2 0 0 1-1.038.423c-.808-.08-1.583-.269-2.214-.81-.618-.532-.925-1.26-1.152-1.992a1.2 1.2 0 0 1 .216-1.111l4.16-5.114a1.2 1.2 0 0 1 1.948.122A5.286 5.286 0 1 0 11.6 4.411a1.2 1.2 0 0 1-.295-2.367 8.83 8.83 0 1 1-3.27 15.623zm-3.652.618L3.99 17.7l-.625.769a.89.89 0 0 0 .206.3.743.743 0 0 0 .29.14l.523-.624z"/></svg>