<svg width="24" height="24" fill="none" xmlns="http://www.w3.org/2000/svg"><g clip-path="url(#clip0)"><path fill-rule="evenodd" clip-rule="evenodd" d="M12 4.2a7.8 7.8 0 1 0 0 15.6 7.8 7.8 0 0 0 0-15.6zM1.8 12C1.8 6.367 6.367 1.8 12 1.8c5.633 0 10.2 4.567 10.2 10.2 0 5.633-4.567 10.2-10.2 10.2-5.633 0-10.2-4.567-10.2-10.2zm10.204-5.805c.5.004 1.007.2 1.213.63.156.327.226.758.233 1.27l-.071 1.254-.341 2.552c-.04.45-.122.825-.262 1.106a.914.914 0 0 1-.341.381.927.927 0 0 1-.497.128.942.942 0 0 1-.493-.132.86.86 0 0 1-.33-.387c-.123-.272-.198-.656-.24-1.126v-.009l-.198-2.408-.055-1.83c-.003.039 0-1.429 1.382-1.429zM11.962 15a1.373 1.373 0 0 0-1.005.402c-.274.27-.416.605-.42.99-.003.421.132.785.432 1.05.278.246.61.372.983.375.37.003.702-.12.981-.364.3-.261.44-.62.444-1.036a1.353 1.353 0 0 0-.412-1A1.399 1.399 0 0 0 11.962 15z" /></g><defs><clipPath id="clip0"><path fill="#fff" d="M0 0H24V24H0z"/></clipPath></defs></svg>
