<svg width="24" height="24" fill="none" xmlns="http://www.w3.org/2000/svg"><path fill-rule="evenodd" clip-rule="evenodd" d="M10.605 1.8a4.2 4.2 0 0 0-3.494 1.87L6.892 4a1.8 1.8 0 0 1-1.498.801H5A4.2 4.2 0 0 0 .8 9v9A4.2 4.2 0 0 0 5 22.2h14a4.2 4.2 0 0 0 4.2-4.2V9A4.2 4.2 0 0 0 19 4.8h-.395a1.8 1.8 0 0 1-1.497-.801l-.219-.329a4.2 4.2 0 0 0-3.495-1.87h-2.789zM9.108 5.002a1.8 1.8 0 0 1 1.497-.802h2.79a1.8 1.8 0 0 1 1.497.802l.219.328a4.2 4.2 0 0 0 3.494 1.87H19A1.8 1.8 0 0 1 20.8 9v9a1.8 1.8 0 0 1-1.8 1.8H5A1.8 1.8 0 0 1 3.2 18V9A1.8 1.8 0 0 1 5 7.2h.394A4.2 4.2 0 0 0 8.89 5.33l.219-.328zM9.2 12.5a2.8 2.8 0 1 1 5.6 0 2.8 2.8 0 0 1-5.6 0zM12 7.3a5.2 5.2 0 1 0 0 10.4 5.2 5.2 0 0 0 0-10.4z"/></svg>