<svg width="24" height="24" viewBox="0 0 24 24" fill="none" xmlns="http://www.w3.org/2000/svg">
<path d="M22 12C22 17.5228 17.5228 22 12 22C6.47715 22 2 17.5228 2 12C2 6.47715 6.47715 2 12 2C17.5228 2 22 6.47715 22 12ZM4.8 12C4.8 15.9764 8.02355 19.2 12 19.2C15.9764 19.2 19.2 15.9764 19.2 12C19.2 8.02355 15.9764 4.8 12 4.8C8.02355 4.8 4.8 8.02355 4.8 12Z" fill="white" fill-opacity="0.2"/>
<path d="M16.3 19.4478C16.6866 20.1174 17.5505 20.3541 18.1596 19.8778C19.5258 18.8096 20.5974 17.3989 21.2587 15.7784C22.0972 13.7236 22.2284 11.4483 21.6316 9.3108C21.0348 7.17328 19.7439 5.29501 17.9622 3.97183C16.5571 2.92829 14.9097 2.27677 13.1878 2.07078C12.4201 1.97894 11.8037 2.62886 11.8199 3.40189C11.8361 4.17492 12.4814 4.7746 13.243 4.90809C14.3416 5.10066 15.3871 5.54709 16.2928 6.21971C17.5756 7.17241 18.5051 8.52476 18.9348 10.0638C19.3645 11.6028 19.27 13.241 18.6663 14.7205C18.24 15.765 17.577 16.6884 16.737 17.4223C16.1547 17.931 15.9134 18.7782 16.3 19.4478Z" fill="white"/>
</svg>
