<svg width="24" height="24" viewBox="0 0 24 24" fill="none" xmlns="http://www.w3.org/2000/svg">
<path d="M2.9998 12C2.9998 7.0275 7.0273 3 11.9998 3C16.9723 3 20.9998 7.0275 20.9998 12C20.9998 16.9725 16.9723 21 11.9998 21C7.02731 21 2.9998 16.9725 2.9998 12Z" fill="#FCD6BB" stroke="#E05D00" stroke-width="2.4"/>
<path fill-rule="evenodd" clip-rule="evenodd" d="M8.45041 8.263C8.96792 7.84899 9.72308 7.9329 10.1371 8.45041L11.9541 10.7217L13.7712 8.45041C14.1852 7.9329 14.9404 7.84899 15.4579 8.263C15.9754 8.67701 16.0593 9.43216 15.6453 9.94968L13.845 12.2L15.6453 14.4504C16.0593 14.9679 15.9754 15.7231 15.4579 16.1371C14.9404 16.5511 14.1852 16.4672 13.7712 15.9497L11.9541 13.6784L10.1371 15.9497C9.72308 16.4672 8.96792 16.5511 8.45041 16.1371C7.9329 15.7231 7.84899 14.9679 8.263 14.4504L10.0633 12.2L8.263 9.94968C7.84899 9.43216 7.9329 8.67701 8.45041 8.263Z" fill="#E05D00"/>
</svg>
