<svg width="24" height="24" fill="none" xmlns="http://www.w3.org/2000/svg"><circle cx="12" cy="12" r="11" fill="#F5CC27"/><circle cx="12" cy="12" r="8" fill="#C79300"/><path clip-rule="evenodd" d="M11.95 6.8c.23.001.443.124.56.324l1.497 2.566a.158.158 0 0 0 .043.035.635.635 0 0 1 .024.005l2.268.459a.652.652 0 0 1 .332 1.1l-1.917 1.917a.025.025 0 0 0-.005.005l-.001.006a.138.138 0 0 0 .005.063l.887 2.662a.652.652 0 0 1-.91.79l-2.755-1.378a.144.144 0 0 0-.028-.011l-.004-.001h-.004a.144.144 0 0 0-.028.012L9.159 16.73a.652.652 0 0 1-.913-.782l.864-2.7a.657.657 0 0 1 .015-.042.078.078 0 0 0-.017-.028l-1.917-1.917a.652.652 0 0 1 .332-1.1l2.268-.46a.649.649 0 0 1 .04-.006.168.168 0 0 0 .027-.031l1.529-2.548a.652.652 0 0 1 .563-.317z"/></svg>