<svg width="24" height="24" fill="none" xmlns="http://www.w3.org/2000/svg"><path fill-rule="evenodd" clip-rule="evenodd" d="M7.111 3.67a4.2 4.2 0 0 1 3.495-1.87h2.789a4.2 4.2 0 0 1 3.494 1.87l.219.329a1.8 1.8 0 0 0 1.498.801H19A4.2 4.2 0 0 1 23.2 9v9a4.2 4.2 0 0 1-4.2 4.2H5A4.2 4.2 0 0 1 .8 18V9A4.2 4.2 0 0 1 5 4.8h.394a1.8 1.8 0 0 0 1.498-.801l.219-.329zm3.495.53a1.8 1.8 0 0 0-1.498.802l-.219.328A4.2 4.2 0 0 1 5.395 7.2H5A1.8 1.8 0 0 0 3.2 9v9A1.8 1.8 0 0 0 5 19.8h14a1.8 1.8 0 0 0 1.8-1.8V9A1.8 1.8 0 0 0 19 7.2h-.394a4.2 4.2 0 0 1-3.495-1.87l-.219-.328a1.8 1.8 0 0 0-1.497-.802h-2.79z" fill="#fff"/><path fill-rule="evenodd" clip-rule="evenodd" d="M13.981 11.699c-.569.38-1.09.867-1.33 1.52.776-.004 1.697-.062 2.34-.54.494-.366.848-.88 1.077-1.375-.652.018-1.519.016-2.087.395zm-1.508 3.92c.152.002.313 0 .48-.005.97-.031 2.393-.21 3.469-1.008s1.698-1.899 2.02-2.764c.259-.695.537-1.609.12-2.301a1.244 1.244 0 0 0-1.066-.608 18 18 0 0 0-1.784-.017 9.64 9.64 0 0 0-1.516.182c-.501.106-1.065.283-1.547.604-.695.464-1.352 1.045-1.83 1.824a4.86 4.86 0 0 0-.52 1.169c-.31-.181-.662-.33-1.058-.425-1.1-.264-2.393-.326-2.774-.326-.494 0-.848.278-1.031.548-.435.639-.19 1.514.058 2.177.255.682.76 1.656 1.615 2.226.869.58 2.016.734 2.773.783.859.055 1.705-.027 2.56-.103l.031-1.956zm-2.834-.373c-.26-.31-.578-.552-.957-.643a7.834 7.834 0 0 0-.614-.118c.125.191.255.335.372.414.248.164.68.284 1.199.347z" fill="#fff"/></svg>