<svg width="80" height="80" fill="none" xmlns="http://www.w3.org/2000/svg"><path d="M80 40c0 22.091-17.909 40-40 40S0 62.091 0 40 17.909 0 40 0s40 17.909 40 40z" fill="#CCF0AD"/><path d="M38.618 54.302V35.82L28.33 41.64c2.172 5.068 5.131 8.462 7.594 10.613a24.38 24.38 0 0 0 2.693 2.05z" fill="#51B816"/><path d="M38.618 24.774v7.87l-11.282 6.383c-.752-2.248-1.348-4.78-1.702-7.626 2.547-3.032 7.482-6.165 12.984-6.627z" fill="#207500"/><path d="M41.382 54.302V42.073l7.845 4.178c-2.086 3.243-4.407 5.474-6.267 6.922-.578.45-1.111.824-1.578 1.129z" fill="#FAD95A"/><path d="M50.616 43.86l-9.234-4.918V24.774c5.502.462 10.436 3.595 12.983 6.627-.634 5.1-2.045 9.198-3.749 12.459z" fill="#359900"/><path fill-rule="evenodd" clip-rule="evenodd" d="M29.65 41.422c1.517 3.707 3.426 6.485 5.227 8.52a25.298 25.298 0 0 0 2.868 2.774V36.749l-8.094 4.673zm-1.319-3.856l9.414-5.436v-6.606c-4.436.704-8.402 3.354-10.62 5.991a41.491 41.491 0 0 0 1.206 6.05zm13.924-12.042v13.339l7.476 3.975c1.412-3.038 2.572-6.77 3.143-11.323-2.217-2.637-6.184-5.287-10.62-5.99zm0 27.192v-9.323l5.562 2.957a28.125 28.125 0 0 1-2.694 3.591 25.31 25.31 0 0 1-2.868 2.775zM40 56.912c.929 2.055.93 2.054.931 2.053h.003l.007-.004.017-.008.048-.022a13.436 13.436 0 0 0 .656-.341 20.84 20.84 0 0 0 1.697-1.061c1.389-.958 3.234-2.445 5.14-4.598 3.832-4.328 7.846-11.276 8.964-21.84a2.255 2.255 0 0 0-.42-1.565c-3.087-4.233-9.656-8.693-17.043-8.693-7.387 0-13.956 4.46-17.043 8.693-.329.451-.479 1.01-.42 1.566 1.117 10.563 5.132 17.511 8.963 21.839 1.907 2.153 3.752 3.64 5.141 4.598.695.479 1.277.827 1.697 1.06a13.436 13.436 0 0 0 .656.342l.048.022.017.008.007.003.002.001c.002.001.003.002.932-2.053zm0 0l-.929 2.055c.59.266 1.267.266 1.858 0l-.93-2.055z" fill="#114700"/></svg>