<svg width="24" height="24" fill="none" xmlns="http://www.w3.org/2000/svg"><path fill-rule="evenodd" clip-rule="evenodd" d="M12.375 11.249l-.02 1.178v.011l-1.2-.042 1.2.042-.017.486a1667.055 1667.055 0 0 0-.148 4.588l-2.4-.07a941.013 941.013 0 0 1 .15-4.6l.016-.476.02-1.157 2.399.04z" fill="#2C8F00"/><path d="M7.77 7.92c2.446.585 3.405 3.31 3.405 3.31l-.02 1.166s-3.4.304-5.134-.852C4.423 10.478 3.72 7.488 4.095 7.488c.481 0 2.237.087 3.675.431z" fill="#ACEB7C"/><path fill-rule="evenodd" clip-rule="evenodd" d="M3.045 6.847a1.268 1.268 0 0 1 1.05-.559c.536 0 2.393.09 3.955.464 1.609.385 2.677 1.46 3.312 2.339a7.943 7.943 0 0 1 .877 1.565c.02.048.035.087.046.117l.014.037.005.012.001.005.001.002s0 .002-1.131.4l1.132-.398.071.203-.04 2.462-1.076.095-.107-1.195.107 1.195h-.002l-.004.001-.01.001-.037.003a10.396 10.396 0 0 1-.576.03c-.373.01-.891.012-1.472-.025-1.098-.07-2.658-.294-3.805-1.059-1.113-.741-1.802-2.04-2.162-3.006a6.627 6.627 0 0 1-.372-1.411 2.477 2.477 0 0 1-.002-.698c.019-.118.068-.35.225-.58zm6.818 4.382a12.84 12.84 0 0 1-.547-.023c-1.035-.067-2.043-.27-2.63-.66-.47-.314-.918-1.009-1.216-1.776.63.06 1.367.16 2.02.316.837.2 1.471.78 1.927 1.41.194.269.342.527.446.733z" fill="#359900"/><path d="M17.707 8.223c2.459-1.825 2.99-5.17 2.636-5.17-.355 0-4.379-.352-6.16.836-1.78 1.188-3.008 2.737-3.008 5.348 0 0 4.268.666 6.532-1.014z" fill="#ACEB7C"/><path fill-rule="evenodd" clip-rule="evenodd" d="M16.096 4.43c-.563.12-.981.28-1.247.457-.799.533-1.405 1.102-1.815 1.77-.258.42-.456.908-.565 1.494.32.016.69.023 1.084.01 1.296-.042 2.614-.29 3.438-.901.989-.734 1.621-1.803 1.964-2.725.043-.115.08-.225.113-.33a18.706 18.706 0 0 0-1.213.019c-.598.028-1.21.09-1.76.207zm-4.921 4.807l-.185 1.186-1.015-.159V9.238c0-1.506.358-2.767 1.014-3.836.648-1.056 1.547-1.856 2.528-2.51.625-.417 1.377-.659 2.081-.808a13.642 13.642 0 0 1 2.143-.257 22.671 22.671 0 0 1 1.778-.01c.238.008.44.018.59.025l.07.003.111.006.057.002h-.004c.589 0 .94.38 1.084.62.132.219.174.433.191.545.038.247.025.505.001.72a7.146 7.146 0 0 1-.414 1.635c-.45 1.208-1.313 2.723-2.783 3.815-1.44 1.068-3.387 1.328-4.791 1.373a16.305 16.305 0 0 1-2.575-.127l-.045-.007-.014-.002h-.006s-.001-.001.184-1.187z" fill="#46A314"/><path d="M5.279 19.444c-1.657.962-1.581 2.701-1.581 2.701h14.7s-.011-1.737-1.547-2.725c-1.537-.987-3.174.094-3.34.047-.164-.046-.385-1.779-2.52-1.99-1.985.032-2.37 1.914-2.47 1.967-.101.054-1.586-.961-3.242 0z" fill="#D9C2B5"/><path fill-rule="evenodd" clip-rule="evenodd" d="M11.04 16.276l.069.006c1.44.143 2.325.83 2.847 1.54.046.062.087.122.126.181.1-.029.208-.057.32-.082.804-.183 1.963-.24 3.098.49a4.531 4.531 0 0 1 1.833 2.346 4.928 4.928 0 0 1 .26 1.231l.004.095v.032l.001.013v.008l-1.2.01-1.2.008V22.148a2.534 2.534 0 0 0-.13-.6 2.133 2.133 0 0 0-.866-1.118c-.402-.258-.83-.268-1.27-.169a4.09 4.09 0 0 0-.668.221c-.068.028-.151.061-.213.084a1.939 1.939 0 0 1-.213.065h-.004a1.295 1.295 0 0 1-.649-.009 1.263 1.263 0 0 1-.672-.471l-.002-.003a1.618 1.618 0 0 1-.142-.236 5.772 5.772 0 0 1-.098-.215l-.017-.04a2.177 2.177 0 0 0-.23-.411c-.157-.213-.436-.486-1.081-.567-.495.026-.751.247-.93.488a2.246 2.246 0 0 0-.244.435l-.052.12-.038.093c-.012.03-.04.094-.075.16a1.36 1.36 0 0 1-.104.167c-.034.046-.168.23-.417.363a1.225 1.225 0 0 1-.892.1 1.753 1.753 0 0 1-.205-.066 10.338 10.338 0 0 1-.164-.067l-.068-.028a3.13 3.13 0 0 0-.523-.167 1.813 1.813 0 0 0-1.35.205 1.895 1.895 0 0 0-.877 1.059 2.08 2.08 0 0 0-.106.556v.015-.011l-.001-.003v-.003c0-.001 0-.002-1.199.05l-1.199.051v-.023a2.082 2.082 0 0 1 0-.133 4.482 4.482 0 0 1 .233-1.27 4.294 4.294 0 0 1 1.944-2.363 4.21 4.21 0 0 1 3.06-.477c.064.014.126.03.186.045.05-.078.104-.157.163-.237.527-.711 1.441-1.438 2.886-1.461l.069-.001zm2.182 2.037l.004-.001-.004.001z" fill="#66452E"/></svg>