<svg width="24" height="24" fill="none" xmlns="http://www.w3.org/2000/svg"><path clip-rule="evenodd" d="M10.2 2.5a1.2 1.2 0 1 0-2.4 0v.8H6a4.2 4.2 0 0 0-4.2 4.2v11A4.2 4.2 0 0 0 6 22.7h12a4.2 4.2 0 0 0 4.2-4.2v-11A4.2 4.2 0 0 0 18 3.3h-1.8v-.8a1.2 1.2 0 1 0-2.4 0v.8h-3.6v-.8zM6 5.7h1.8V6a1.2 1.2 0 0 0 2.4 0v-.3h3.6V6a1.2 1.2 0 0 0 2.4 0v-.3H18a1.8 1.8 0 0 1 1.8 1.8v11a1.8 1.8 0 0 1-1.8 1.8H6a1.8 1.8 0 0 1-1.8-1.8v-11A1.8 1.8 0 0 1 6 5.7zM8.643 13a.8.8 0 1 1 1.6 0 .8.8 0 0 1-1.6 0zm.8-3.2a3.2 3.2 0 1 0 0 6.4 3.2 3.2 0 0 0 0-6.4z"/></svg>