<svg width="24" height="24" fill="none" xmlns="http://www.w3.org/2000/svg"><path d="M6 6.5V21h11V6.5m-11 0h11m-11 0H4m13 0h2M9 3h5m-4.5 8.2v5.6m4-5.6v5.6" stroke="#137ED9" stroke-width="2.2" stroke-linecap="round" stroke-linejoin="round"/></svg><svg width="24" height="24" viewBox="0 0 24 24" fill="none" xmlns="http://www.w3.org/2000/svg">
<path fill-rule="evenodd" clip-rule="evenodd" d="M8.2998 3C8.2998 2.33726 8.83706 1.8 9.4998 1.8H14.4998C15.1625 1.8 15.6998 2.33726 15.6998 3C15.6998 3.66274 15.1625 4.2 14.4998 4.2H9.4998C8.83706 4.2 8.2998 3.66274 8.2998 3ZM3.2998 6.5C3.2998 5.83726 3.83706 5.3 4.4998 5.3H19.4998C20.1625 5.3 20.6998 5.83726 20.6998 6.5C20.6998 7.16274 20.1625 7.7 19.4998 7.7H18.6998V21C18.6998 21.6627 18.1625 22.2 17.4998 22.2H6.4998C5.83706 22.2 5.2998 21.6627 5.2998 21V7.7H4.4998C3.83706 7.7 3.2998 7.16274 3.2998 6.5ZM7.6998 7.7V19.8H16.2998V7.7H7.6998ZM9.9998 10C10.6625 10 11.1998 10.5373 11.1998 11.2V16.8C11.1998 17.4627 10.6625 18 9.9998 18C9.33706 18 8.7998 17.4627 8.7998 16.8V11.2C8.7998 10.5373 9.33706 10 9.9998 10ZM13.9998 10C14.6625 10 15.1998 10.5373 15.1998 11.2V16.8C15.1998 17.4627 14.6625 18 13.9998 18C13.3371 18 12.7998 17.4627 12.7998 16.8V11.2C12.7998 10.5373 13.3371 10 13.9998 10Z"/>
</svg>
