<svg width="20" height="21" fill="none" xmlns="http://www.w3.org/2000/svg"><path clip-rule="evenodd" d="M14.096 2.835c-.563.119-.981.278-1.247.456-.799.533-1.405 1.102-1.815 1.77-.258.42-.456.908-.565 1.494.32.015.69.022 1.084.01 1.296-.042 2.614-.29 3.438-.902.989-.733 1.621-1.803 1.964-2.724.043-.116.08-.226.113-.33a18.7 18.7 0 0 0-1.213.018c-.598.029-1.21.091-1.76.208zm-3.721 6.118c.37.018.797.025 1.256.01 1.404-.045 3.352-.304 4.79-1.372 1.471-1.092 2.334-2.608 2.784-3.815a7.146 7.146 0 0 0 .414-1.635 2.793 2.793 0 0 0 0-.72 1.496 1.496 0 0 0-.192-.545 1.264 1.264 0 0 0-1.084-.62h.004L18.29.254l-.112-.006-.07-.003c-.15-.008-.351-.017-.589-.025-.474-.015-1.1-.022-1.778.01-.675.032-1.425.105-2.143.257-.704.149-1.456.39-2.08.807-.982.655-1.88 1.455-2.53 2.511a6.72 6.72 0 0 0-.887 2.359A5.277 5.277 0 0 0 6.05 5.156c-1.562-.374-3.42-.464-3.955-.464-.502 0-.862.282-1.05.559-.157.23-.206.461-.225.58-.041.253-.022.508.002.698.053.41.184.908.372 1.41.36.966 1.05 2.266 2.162 3.007 1.147.765 2.707.988 3.806 1.059.266.017.519.026.75.03a1344.417 1344.417 0 0 0-.092 2.833 3.538 3.538 0 0 0-1.735 1.274c-.059.08-.113.159-.163.236a5.138 5.138 0 0 0-.187-.044 4.21 4.21 0 0 0-3.059.476 4.294 4.294 0 0 0-1.945 2.364 4.482 4.482 0 0 0-.233 1.27 2.826 2.826 0 0 0 0 .133v.022H.5c0 .001 0 .002 1.199-.05l1.199-.051V20.501a2.081 2.081 0 0 1 .107-.557c.116-.344.353-.754.877-1.058a1.813 1.813 0 0 1 1.35-.205c.2.042.374.106.523.167l.068.027.164.068c.034.013.113.043.205.066a1.225 1.225 0 0 0 .892-.101c.249-.132.383-.316.417-.362.052-.071.087-.136.104-.168a2.123 2.123 0 0 0 .113-.251c.015-.037.028-.069.051-.12.063-.143.14-.295.245-.436.179-.241.435-.463.93-.489.645.081.924.354 1.081.567.096.131.165.268.23.412l.017.04c.026.059.067.151.098.214.022.044.07.138.142.237l.002.003c.045.061.259.354.672.47.324.092.604.022.649.01h.005c.09-.022.168-.05.212-.066.062-.022.145-.056.213-.083l.064-.026a4.09 4.09 0 0 1 .604-.195c.44-.1.868-.09 1.27.168.484.312.733.74.866 1.12a2.534 2.534 0 0 1 .13.6v.016-.01s0-.002 1.2-.01l1.2-.009v-.021l-.001-.032a4.075 4.075 0 0 0-.036-.392c-.034-.24-.1-.567-.228-.934a4.531 4.531 0 0 0-1.833-2.346c-1.135-.73-2.294-.673-3.098-.49a5.507 5.507 0 0 0-.32.082 3.692 3.692 0 0 0-1.863-1.475 1130.625 1130.625 0 0 1 .12-3.604l.016-.486v-.011l.02-1.188v-.69zm-2.512.68a5.535 5.535 0 0 0-.446-.732c-.456-.63-1.09-1.21-1.926-1.411a15.281 15.281 0 0 0-2.021-.316c.298.767.746 1.461 1.217 1.775.586.391 1.594.594 2.629.66.19.013.375.02.547.024z"/></svg>