<svg width="24" height="24" fill="none" xmlns="http://www.w3.org/2000/svg"><path fill-rule="evenodd" clip-rule="evenodd" d="M13.61 10.945V4.769c0-1.462-.508-2.788-1.958-2.769-1.45.02-1.933 1.348-1.933 2.77v10.5c0-1.546-3.255-4.518-4.695-3.381-1.44 1.136-.826 2.568.567 4.233.935 1.438 3.652 6.547 5.528 6.547h6.086c.572 0 1.145-.11 1.641-.393 3.351-1.906 2.731-4.612 2.964-8.007 0-.916-.197-2.039-1.05-2.38-.64-.256-1.46.369-1.46.369s.155-1.153-1.027-1.506c-1.181-.353-1.614.727-1.614.727s0-1.113-1.16-1.43c-1.161-.315-1.521.85-1.889.896z" fill="#fff"/><path fill-rule="evenodd" clip-rule="evenodd" d="M5.72 1.718c.416.2.68.62.68 1.082v1.36h1.371v2.4H6.4V8a1.2 1.2 0 0 1-1.993.9L1.466 6.314a1.372 1.372 0 0 1 .049-2.102L4.45 1.863a1.2 1.2 0 0 1 1.27-.145zM4 5.297l-.03.023.03.026v-.05zm13.477 3.796a1.2 1.2 0 0 0 1.287-.192l2.941-2.588a1.372 1.372 0 0 0-.049-2.102l-2.935-2.348a1.2 1.2 0 0 0-1.95.937v1.36H15.4v2.4h1.371V8c0 .471.276.9.706 1.093zm1.694-3.796l.03.023-.03.026v-.05z" fill="#fff"/></svg>