<svg width="22" height="22" fill="none" xmlns="http://www.w3.org/2000/svg"><path clip-rule="evenodd" d="M11 3.2a7.8 7.8 0 1 0 0 15.6 7.8 7.8 0 0 0 0-15.6zM.8 11C.8 5.367 5.367.8 11 .8 16.633.8 21.2 5.367 21.2 11c0 5.633-4.567 10.2-10.2 10.2C5.367 21.2.8 16.633.8 11zm10.204-5.805c.5.004 1.007.2 1.213.63.156.327.226.758.233 1.27l-.071 1.254-.341 2.552c-.04.45-.122.825-.262 1.106a.914.914 0 0 1-.341.381.928.928 0 0 1-.497.128.941.941 0 0 1-.493-.132.859.859 0 0 1-.33-.387c-.123-.272-.198-.656-.24-1.126v-.009l-.198-2.408-.055-1.83c-.003.039 0-1.429 1.382-1.429zM10.962 14a1.374 1.374 0 0 0-1.005.402c-.274.269-.416.605-.42.99-.003.421.132.785.432 1.05.278.246.61.372.983.375.37.003.702-.12.981-.364.3-.261.44-.62.444-1.036a1.353 1.353 0 0 0-.412-1A1.4 1.4 0 0 0 10.962 14z"/></svg>