<svg width="24" height="24" xmlns="http://www.w3.org/2000/svg"><path fill-rule="evenodd" clip-rule="evenodd" d="M16.096 3.835c-.562.119-.98.278-1.247.456-.799.533-1.405 1.102-1.815 1.77-.258.42-.456.908-.565 1.494.32.015.69.022 1.085.01 1.295-.042 2.613-.29 3.438-.902.988-.733 1.62-1.803 1.963-2.724.043-.116.08-.226.113-.33a18.703 18.703 0 0 0-1.213.018c-.598.029-1.21.091-1.76.208zm-3.721 6.118c.37.018.797.025 1.256.01 1.405-.045 3.352-.304 4.791-1.372 1.47-1.092 2.334-2.608 2.783-3.815a7.146 7.146 0 0 0 .414-1.635 2.793 2.793 0 0 0 0-.72 1.496 1.496 0 0 0-.192-.545 1.264 1.264 0 0 0-1.084-.62h.004l-.057-.002-.112-.006a66.777 66.777 0 0 0-.659-.028c-.474-.015-1.1-.022-1.778.01a13.64 13.64 0 0 0-2.142.257c-.705.149-1.457.39-2.082.807-.98.655-1.88 1.455-2.528 2.511-.43.699-.73 1.48-.888 2.359A5.278 5.278 0 0 0 8.05 6.156c-1.562-.374-3.42-.464-3.955-.464-.502 0-.862.282-1.05.559-.157.23-.206.461-.225.58-.041.253-.022.508.003.698.052.41.183.908.37 1.41.361.966 1.05 2.266 2.163 3.007 1.147.765 2.707.988 3.806 1.059.266.017.519.026.75.03a1344.417 1344.417 0 0 0-.091 2.833 3.538 3.538 0 0 0-1.735 1.274c-.06.08-.114.159-.163.236a5.138 5.138 0 0 0-.188-.044 4.21 4.21 0 0 0-3.059.476 4.294 4.294 0 0 0-1.945 2.364 4.482 4.482 0 0 0-.233 1.27 2.84 2.84 0 0 0 0 .133v.013l.001.006v.003c0 .001 0 .002 1.2-.05l1.198-.051V21.501a2.082 2.082 0 0 1 .107-.557c.117-.344.353-.754.878-1.058a1.813 1.813 0 0 1 1.35-.205c.198.042.373.106.522.167l.068.027.164.068c.035.013.114.043.205.066a1.225 1.225 0 0 0 .892-.101c.249-.132.383-.316.417-.362.052-.071.088-.136.105-.168a2.12 2.12 0 0 0 .113-.251l.05-.12c.063-.143.14-.295.245-.436.18-.241.435-.463.93-.489.645.081.924.354 1.081.567.097.131.165.268.23.412l.017.04c.026.059.067.151.098.214.022.044.07.138.142.237l.002.003c.045.061.26.354.673.47.323.092.603.022.648.01h.005c.09-.022.168-.05.212-.066a8.153 8.153 0 0 0 .277-.109 4.09 4.09 0 0 1 .604-.195c.44-.1.868-.09 1.27.168.484.312.733.74.866 1.12a2.534 2.534 0 0 1 .13.6v.016-.01s0-.002 1.2-.01l1.2-.009V21.487l-.006-.095a4.928 4.928 0 0 0-.259-1.231 4.531 4.531 0 0 0-1.833-2.346c-1.135-.73-2.294-.673-3.098-.49a5.486 5.486 0 0 0-.32.082 3.692 3.692 0 0 0-1.863-1.475 1130.625 1130.625 0 0 1 .12-3.604l.016-.486v-.011l.02-1.188v-.69zm-2.512.68a5.533 5.533 0 0 0-.446-.732c-.455-.63-1.09-1.21-1.926-1.411a15.282 15.282 0 0 0-2.02-.316c.297.767.745 1.461 1.216 1.775.587.391 1.594.594 2.629.66.19.013.375.02.547.024z"/></svg>