<svg width="80" height="80" viewBox="0 0 80 80" fill="none" xmlns="http://www.w3.org/2000/svg">
<path d="M80 40C80 62.0914 62.0914 80 40 80C17.9086 80 0 62.0914 0 40C0 17.9086 17.9086 0 40 0C62.0914 0 80 17.9086 80 40Z" fill="#E6F2FA"/>
<path d="M36.7531 25.7692C36.7531 25.7692 32.6848 29.8932 31.7108 31.0407C30.7368 32.1881 29.3043 34.0524 29.0181 34.5643C28.7318 35.0762 28.4989 36.7719 28.4456 37.6913C28.3885 38.6616 28.2733 43.8215 28.2733 45.083C28.2733 46.3445 28.5596 48.6357 28.6748 49.953C28.79 51.2703 29.2473 53.4487 29.5918 54.077C29.9363 54.7053 30.5088 54.994 30.2795 55.3373C30.0503 55.6806 29.3092 55.6126 29.3625 56.1391C29.4159 56.6655 30.0503 56.6667 30.2795 56.6667H49.3593C49.3593 56.6667 50.1477 56.674 50.3903 56.5126C50.7335 56.2834 50.6195 55.968 50.275 55.797C50.0279 55.6512 49.8132 55.4564 49.6443 55.2245C50.0069 54.8156 50.3317 54.3747 50.6147 53.9072C51.0162 53.2195 51.3594 51.6147 51.585 49.7832C51.8106 47.9516 51.699 43.5377 51.699 41.4745C51.699 39.4112 51.699 38.094 51.585 36.8337C51.5305 36.0907 51.3762 35.3584 51.1265 34.6565C50.4958 32.5362 43.5638 25.9475 43.5638 25.9475" fill="#D2E9F9"/>
<path d="M41.4606 23.621C40.0281 22.9333 38.9134 23.655 38.3433 23.9643C37.7999 24.2578 36.3031 25.4538 36.3031 25.4538L37.8957 26.52C37.8957 26.52 38.4112 28.468 38.5835 28.8695C38.7557 29.2709 39.099 30.0157 39.6145 30.2449C40.13 30.4742 40.13 30.4742 40.5848 30.3019C41.0397 30.1297 41.4448 29.5572 41.7881 28.8695C42.1313 28.1817 42.5898 26.577 42.5898 26.577L43.9532 25.5229C43.9532 25.5229 42.8955 24.3027 41.4606 23.621Z" fill="#D2E9F9"/>
<path d="M28.6748 49.953C28.5596 48.6357 28.2733 46.3445 28.2733 45.083C28.2733 44.5414 28.2946 43.281 28.3233 41.9421C32.3565 47.6405 52.7218 40.5545 51.585 49.7832C51.3594 51.6148 51.0162 53.2195 50.6147 53.9072C50.3317 54.3747 50.0069 54.8156 49.6443 55.2245C49.8132 55.4564 50.0279 55.6512 50.275 55.797C50.6195 55.968 50.7335 56.2834 50.3903 56.5127C50.1477 56.674 49.3593 56.6667 49.3593 56.6667H30.2795C30.0503 56.6667 29.4159 56.6655 29.3625 56.1391C29.3092 55.6126 30.0503 55.6806 30.2795 55.3373C30.5088 54.994 29.9363 54.7054 29.5918 54.077C29.2473 53.4487 28.79 51.2703 28.6748 49.953Z" fill="#82C5F4"/>
<path fill-rule="evenodd" clip-rule="evenodd" d="M27.3275 46.7194C27.9287 46.1494 28.8781 46.1747 29.4481 46.7759C31.227 48.6522 33.5841 49.7652 36.0686 49.9262C38.5526 50.0872 41.0168 49.2873 42.9955 47.6598C43.6353 47.1335 44.5806 47.2256 45.1069 47.8654C45.6331 48.5052 45.541 49.4505 44.9012 49.9767C42.3468 52.0778 39.1354 53.1312 35.8746 52.9199C32.6142 52.7086 29.5553 51.2493 27.271 48.8399C26.701 48.2387 26.7263 47.2893 27.3275 46.7194Z" fill="#0068CA"/>
<path fill-rule="evenodd" clip-rule="evenodd" d="M28.2622 37.5321C29.0906 37.526 29.7671 38.1926 29.7732 39.021C29.7866 40.848 30.4377 42.595 31.586 43.9329C32.7328 45.2688 34.2919 46.1013 35.9604 46.2955C37.6281 46.4896 39.3136 46.0356 40.6995 45.0039C42.0877 43.9704 43.0827 42.4245 43.4752 40.6479C43.654 39.839 44.4546 39.3281 45.2635 39.5069C46.0724 39.6856 46.5833 40.4862 46.4046 41.2951C45.8618 43.7521 44.4767 45.9319 42.4909 47.4102C40.5029 48.8902 38.0551 49.5595 35.6136 49.2754C33.173 48.9914 30.9326 47.7776 29.3096 45.8869C27.6883 43.998 26.7918 41.5622 26.7733 39.0431C26.7672 38.2147 27.4338 37.5382 28.2622 37.5321Z" fill="#0068CA"/>
<path fill-rule="evenodd" clip-rule="evenodd" d="M31.9524 36.8523C32.7704 36.9833 33.3272 37.7527 33.1961 38.5707C33.1705 38.7302 33.1546 38.8913 33.1485 39.0531C33.1484 40.0385 33.5042 40.9755 34.1261 41.6773C34.7504 42.3817 35.5918 42.7938 36.4715 42.8542C37.3507 42.9146 38.2302 42.6215 38.9299 42.0141C39.632 41.4046 40.1011 40.5217 40.2188 39.5376C40.3172 38.715 41.0637 38.128 41.8863 38.2263C42.7089 38.3247 43.2959 39.0713 43.1976 39.8938C42.9942 41.5945 42.1791 43.1662 40.8965 44.2796C39.6114 45.3951 37.9552 45.9632 36.2659 45.8472C34.5772 45.7311 33.0111 44.9424 31.8809 43.667C30.7525 42.3938 30.1397 40.7297 30.1486 39.0168C30.1486 39.0029 30.1489 38.989 30.1494 38.9752C30.159 38.6806 30.1873 38.3869 30.2339 38.096C30.365 37.278 31.1344 36.7212 31.9524 36.8523Z" fill="#0068CA"/>
<path fill-rule="evenodd" clip-rule="evenodd" d="M35.3011 37.323C36.1178 37.4621 36.667 38.2369 36.5279 39.0536C36.5202 39.0987 36.5213 39.1452 36.531 39.1892C36.5407 39.2332 36.5579 39.2707 36.5784 39.3001C36.5987 39.3294 36.6208 39.3487 36.6402 39.3608C36.6593 39.3727 36.6764 39.378 36.6904 39.38C36.7043 39.3819 36.7187 39.381 36.7341 39.3765C36.7496 39.3719 36.7689 39.3627 36.7896 39.3452C36.8104 39.3276 36.8323 39.3016 36.8503 39.2662C36.8683 39.2306 36.8807 39.1883 36.8845 39.142C36.951 38.3163 37.6743 37.7008 38.5001 37.7673C39.3258 37.8338 39.9413 38.5571 39.8748 39.3829C39.8401 39.813 39.7228 40.2339 39.5272 40.6204C39.3316 41.007 39.0608 41.3532 38.7274 41.6353C38.3939 41.9176 38.0048 42.1295 37.5825 42.254C37.16 42.3786 36.7162 42.4121 36.2793 42.3516C35.8424 42.2912 35.4254 42.1387 35.0534 41.9068C34.6815 41.675 34.3636 41.3698 34.1155 41.0131C33.8676 40.6566 33.6936 40.255 33.6009 39.8332C33.5083 39.4115 33.498 38.9752 33.5705 38.5497C33.7096 37.7331 34.4844 37.1838 35.3011 37.323Z" fill="#0068CA"/>
<path fill-rule="evenodd" clip-rule="evenodd" d="M44.5656 23.3257C44.044 22.867 43.2658 22.265 42.3223 21.8162C40.0098 20.7081 38.0848 21.8093 37.4933 22.1476C37.4525 22.171 37.4181 22.1907 37.3903 22.2058C36.9546 22.4416 36.3141 22.9192 35.9099 23.2262C35.6781 23.4021 35.4654 23.5675 35.3111 23.6885C35.2337 23.7492 35.1704 23.7992 35.1261 23.8343L35.0744 23.8754L35.0545 23.8912C34.5899 24.2625 34.3163 24.8196 34.3034 25.4099C33.9663 25.7546 33.5718 26.1591 33.1614 26.5823C32.0424 27.7363 30.7263 29.11 30.1861 29.7464C29.6723 30.3517 29.0493 31.1318 28.5186 31.8249C28.0287 32.4648 27.5003 33.1809 27.2726 33.5881C27.0678 33.9542 26.9487 34.3675 26.8781 34.6426C26.7963 34.9614 26.7279 35.31 26.6719 35.6455C26.5603 36.3133 26.4802 37.0378 26.4491 37.5739C26.3888 38.602 26.2734 43.802 26.2734 45.083C26.2734 46.0999 26.4418 47.7391 26.5704 48.9911C26.6157 49.4328 26.6561 49.8263 26.6825 50.1273C26.7495 50.893 26.909 51.854 27.0933 52.6994C27.1864 53.1264 27.2913 53.5492 27.4024 53.9228C27.4819 54.1902 27.5881 54.5151 27.7263 54.8154C27.4379 55.2688 27.3182 55.8018 27.3728 56.3407C27.4296 56.9013 27.6623 57.4177 28.0474 57.8223C28.4059 58.1991 28.8124 58.3919 29.1098 58.4933C29.6306 58.6708 30.1364 58.6675 30.2624 58.6667L30.2796 58.6667H49.3593L49.3635 58.6667L49.4042 58.6666C49.4369 58.6665 49.481 58.666 49.5336 58.6647C49.6367 58.6623 49.7825 58.6567 49.9447 58.6437C50.0999 58.6311 50.3089 58.6087 50.5261 58.5645C50.6824 58.5327 51.0985 58.4435 51.4978 58.178L51.5011 58.1758C52.1271 57.7577 52.8045 56.8753 52.5429 55.6988C52.4859 55.4422 52.3925 55.2174 52.2777 55.0214L52.3257 54.9429L52.342 54.9155C52.7055 54.2928 52.9444 53.4661 53.1153 52.7211C53.2992 51.9191 53.4517 50.9889 53.5701 50.0277C53.7005 48.9693 53.7264 47.2836 53.7267 45.7161C53.7269 44.9103 53.7199 44.0994 53.7129 43.3666L53.7106 43.1218C53.7045 42.4843 53.6991 41.9217 53.6991 41.4744V41.3913C53.6991 39.4096 53.6991 38.0154 53.5784 36.6698C53.5107 35.7687 53.3249 34.8805 53.0257 34.028C52.859 33.5009 52.565 32.9936 52.2956 32.5807C51.9958 32.1212 51.6285 31.6328 51.2357 31.1457C50.4489 30.1701 49.4821 29.1039 48.5605 28.1313C47.6343 27.1538 46.7313 26.2471 46.0614 25.5863C46.0244 25.5498 45.9881 25.514 45.9525 25.479C45.9422 25.0152 45.7702 24.5658 45.4633 24.2117L45.4595 24.2073L45.453 24.1999L45.4352 24.1798C45.4213 24.1641 45.4031 24.1439 45.3808 24.1195C45.3364 24.0709 45.2754 24.0056 45.1993 23.9274C45.0477 23.7714 44.8328 23.5607 44.5656 23.3257ZM45.0337 24.5857C45.4639 24.2123 45.4634 24.2119 45.4633 24.2117L45.0337 24.5857C45.0339 24.5859 45.0335 24.5855 45.0337 24.5857ZM43.88 29.058C43.7843 29.3083 43.6814 29.5542 43.5774 29.7626C43.4039 30.1102 43.1056 30.6928 42.632 31.1805C42.0881 31.7406 41.3016 32.1891 40.2782 32.1891C38.4162 32.1891 37.2855 30.917 36.7453 29.6579C36.6682 29.4782 36.5754 29.1964 36.4855 28.9011C36.3384 29.0523 36.1868 29.2083 36.0331 29.3669C34.8745 30.5617 33.6695 31.8238 33.2356 32.3349C32.7754 32.877 32.1952 33.6028 31.6946 34.2566C31.445 34.5827 31.222 34.8819 31.0481 35.1245C30.961 35.2458 30.8907 35.3469 30.8377 35.4261C30.8188 35.4542 30.8041 35.4767 30.7929 35.4941C30.7843 35.521 30.7705 35.5671 30.7527 35.6364C30.7086 35.8082 30.6619 36.037 30.6172 36.3044C30.5275 36.8416 30.4645 37.424 30.4423 37.8071C30.3884 38.7232 30.2734 43.8416 30.2734 45.083C30.2734 45.8804 30.4011 47.1225 30.5225 48.3031C30.5757 48.8211 30.6278 49.3272 30.6673 49.7787C30.7155 50.3302 30.8423 51.1171 31.0015 51.8472C31.0802 52.208 31.1614 52.5301 31.2365 52.7828C31.2941 52.9764 31.3331 53.0774 31.3462 53.1115C31.3528 53.1287 31.3529 53.1289 31.3456 53.1155C31.3743 53.1678 31.3844 53.1792 31.4309 53.2312C31.4744 53.28 31.5498 53.3644 31.7022 53.5518L31.7055 53.5558C31.8008 53.6729 32.0764 54.0115 32.2249 54.4831C32.244 54.5436 32.2606 54.6049 32.2746 54.6666H47.7236C47.8041 54.3888 47.946 54.1253 48.148 53.8975C48.4245 53.5857 48.6727 53.25 48.8899 52.8944C48.8946 52.8853 48.9058 52.8628 48.9224 52.8239C48.9457 52.7691 48.9744 52.6941 49.0071 52.5963C49.0732 52.3987 49.1443 52.142 49.2165 51.8271C49.361 51.1969 49.4929 50.409 49.6001 49.5386C49.6953 48.7655 49.7264 47.3284 49.7267 45.7153C49.7269 44.9307 49.72 44.1368 49.7131 43.4045L49.7108 43.1596C49.7047 42.5268 49.6991 41.9425 49.6991 41.4744C49.6991 39.3821 49.6974 38.165 49.5932 37.0139L49.5905 36.9802C49.549 36.4159 49.4319 35.8598 49.2423 35.3268C49.2305 35.2937 49.2196 35.2603 49.2096 35.2267C49.2105 35.2296 49.2099 35.2283 49.2074 35.2227C49.1945 35.1938 49.1303 35.0495 48.9455 34.7663C48.7455 34.4597 48.4677 34.0854 48.122 33.6567C47.4316 32.8006 46.5471 31.822 45.6569 30.8825C45.0328 30.2238 44.4168 29.5957 43.88 29.058ZM37.3903 22.2058L38.3432 23.9642L37.3926 22.2045L37.3903 22.2058ZM39.6374 25.537C39.7204 25.6842 39.7851 25.8424 39.829 26.0082L39.8504 26.0884L39.9096 26.3091C39.9596 26.4942 40.0277 26.744 40.1008 27.0049C40.1403 27.1462 40.1807 27.2883 40.2199 27.4236C40.2815 27.2516 40.3479 27.056 40.4146 26.8499C40.4878 26.6233 40.5516 26.4153 40.597 26.2638C40.6196 26.1884 40.6375 26.1277 40.6495 26.0865L40.663 26.0403L40.6667 26.0273C40.7133 25.8642 40.7802 25.7087 40.8651 25.5641C40.7785 25.5154 40.6908 25.4695 40.6022 25.4275L40.5948 25.4239C40.3587 25.3106 40.2096 25.3222 40.0665 25.3582C39.922 25.3946 39.8048 25.448 39.6374 25.537ZM30.5229 57.4991C30.5228 57.4992 30.524 57.4986 30.5264 57.4975L30.5245 57.4983L30.5229 57.4991Z" fill="#0068CA"/>
</svg>
