<svg width="24" height="24" fill="none" xmlns="http://www.w3.org/2000/svg"><circle cx="12" cy="12" r="11" fill="#BCDFF8"/><path d="M7 3.6s2 2.346 1.5 3.9c-.5 1.554-2.11.812-2.5 2-.656 2-1.5 2.5-1 3.5s2.203.152 4 1.5c.78.586 1.5 1.5 1 2.5-.351.702-1.527.685-2.5 1l-2.1 1.3C.555 14.555 1.5 7 7 3.6z" fill="#93D65E"/><path d="M5.4 19.3C.555 14.555 1.5 7 7 3.6c0 0 2 2.346 1.5 3.9-.5 1.554-2.11.812-2.5 2-.656 2-1.5 2.5-1 3.5s2.203.152 4 1.5c.78.586 1.5 1.5 1 2.5-.351.702-1.527.685-2.5 1m-2.1 1.3s.993-.942 2.1-1.3m-2.1 1.3L7.5 18" stroke="#137ED9" stroke-width="2.4" stroke-linecap="round" stroke-linejoin="round"/><path d="M18.5 13c.9.426 3 .5 3 .5-.891 3.33-2.386 5.808-5.5 7.5 0 0 1.321-2.934.5-4.5-.836-1.594-2.968-.998-3.477-2.725-.523-1.775.981-3.138 2.5-3 1.375.125 1.73 1.634 2.977 2.225z" fill="#75C738" stroke="#137ED9" stroke-width="2.4" stroke-linecap="round" stroke-linejoin="round"/><path d="M15.5 4.5c.758-.616 0-1.5 0-1.5C19 5 19 5.5 21 9.5c0 0-1.289-1.058-2.5-1.3C16 7.7 13 7.562 13 5.5c0-.5 1.822-.45 2.5-1z" fill="#75C738"/><path d="M15.5 3l.595-1.042a1.2 1.2 0 0 0-1.506 1.823L15.5 3zm0 1.5l.757.931L15.5 4.5zm3 3.7l-.235 1.177L18.5 8.2zM21 9.5l-.761.928a1.2 1.2 0 0 0 1.834-1.465L21 9.5zM15.5 3l-.912.78-.002-.002-.002-.003-.004-.004a.497.497 0 0 0-.004-.006l-.001-.001a.471.471 0 0 1 .066.119c.005.019-.015-.031.004-.123a.424.424 0 0 1 .054-.136c.025-.04.045-.056.044-.055l1.514 1.862c.39-.317.642-.724.737-1.179.09-.431.023-.817-.066-1.096a2.804 2.804 0 0 0-.514-.934l-.001-.001-.001-.001L15.5 3zm-.757.569c.016-.013-.042.033-.267.1-.21.064-.445.114-.738.178-.246.054-.602.132-.897.252a1.9 1.9 0 0 0-.578.358A1.418 1.418 0 0 0 11.8 5.5h2.4a.983.983 0 0 1-.303.715c-.103.095-.18.12-.148.106.068-.028.21-.065.504-.13.248-.054.596-.127.918-.224.307-.093.73-.247 1.086-.536L14.743 3.57zM11.8 5.5c0 .85.326 1.553.872 2.083.507.49 1.154.788 1.76.99.616.206 1.295.347 1.938.465.682.124 1.275.215 1.895.339l.47-2.354c-.63-.126-1.35-.24-1.934-.346-.622-.114-1.162-.23-1.608-.38-.457-.152-.715-.307-.85-.437-.094-.092-.143-.18-.143-.36h-2.4zm6.465 3.877c.393.078.872.313 1.305.583a7.788 7.788 0 0 1 .665.464l.005.005v-.001L21 9.5l.76-.928-.002-.002a10.198 10.198 0 0 0-.92-.648c-.513-.32-1.285-.735-2.103-.899l-.47 2.354zm3.808-.414c-.953-1.907-1.53-3.204-2.317-4.204-.841-1.071-1.895-1.792-3.66-2.8l-1.191 2.083c1.734.99 2.43 1.52 2.964 2.2.589.749 1.011 1.702 2.058 3.795l2.146-1.074z" fill="#137ED9"/><circle cx="12" cy="12" r="9.8" stroke="#137ED9" stroke-width="2.4"/></svg>