<svg width="24" height="24" fill="none" xmlns="http://www.w3.org/2000/svg"><path clip-rule="evenodd" d="M12 3.2a5.24 5.24 0 0 0-4.133 8.464l.007.009.001.002.09.11.01.014c1.298 1.61 2.228 2.922 2.945 4.447.378.806.689 1.655.967 2.618.258-.951.575-1.789.977-2.587.76-1.509 1.792-2.817 3.131-4.444l.01-.012.084-.1.01-.013.018-.023.022-.029A5.24 5.24 0 0 0 12 3.2zm5.844 10.164c-1.347 1.636-2.213 2.754-2.837 3.992-.612 1.217-1.018 2.611-1.318 4.806A1.2 1.2 0 0 1 12.5 23.2h-1.1a1.2 1.2 0 0 1-1.176-.963c-.452-2.239-.88-3.7-1.477-4.97-.594-1.267-1.383-2.4-2.635-3.957-.041-.049-.081-.099-.12-.149l-.01-.013-.008-.009-.003-.004a7.64 7.64 0 1 1 12.043.022l-.06.072c-.036.046-.073.09-.11.135zM12.03 4.8a1.2 1.2 0 0 1 1.2 1.2v1.3h1.27a1.2 1.2 0 1 1 0 2.4h-1.27V11a1.2 1.2 0 0 1-2.4 0V9.7H9.5a1.2 1.2 0 0 1 0-2.4h1.33V6a1.2 1.2 0 0 1 1.2-1.2z"/></svg>