<svg width="24" height="24" fill="none" xmlns="http://www.w3.org/2000/svg"><path fill-rule="evenodd" clip-rule="evenodd" d="M6.65 7v9.936h-2.3V7h2.3zm13 0v9.936h-2.3V7h2.3zM7.032 17.35h9.936v2.3H7.032v-2.3zm0-13h9.936v2.3H7.032v-2.3z" fill="#46A314"/><path fill-rule="evenodd" clip-rule="evenodd" d="M5.5 4.2a1.3 1.3 0 1 0 0 2.6 1.3 1.3 0 0 0 0-2.6zM1.8 5.5a3.7 3.7 0 1 1 7.4 0 3.7 3.7 0 0 1-7.4 0zm16.7-1.3a1.3 1.3 0 1 0 0 2.6 1.3 1.3 0 0 0 0-2.6zm-3.7 1.3a3.7 3.7 0 1 1 7.4 0 3.7 3.7 0 0 1-7.4 0zm3.7 11.7a1.3 1.3 0 1 0 0 2.6 1.3 1.3 0 0 0 0-2.6zm-3.7 1.3a3.7 3.7 0 1 1 7.4 0 3.7 3.7 0 0 1-7.4 0zm-9.3-1.3a1.3 1.3 0 1 0 0 2.6 1.3 1.3 0 0 0 0-2.6zm-3.7 1.3a3.7 3.7 0 1 1 7.4 0 3.7 3.7 0 0 1-7.4 0z" fill="#E05D00"/></svg>