<svg width="24" height="24" fill="none" xmlns="http://www.w3.org/2000/svg"><path clip-rule="evenodd" d="M4.2 6A1.8 1.8 0 0 1 6 4.2h12A1.8 1.8 0 0 1 19.8 6v8.45a1.8 1.8 0 0 1-1.8 1.8h-1.35a1.2 1.2 0 0 0-1.2 1.2v1.373l-3.78-2.388a1.2 1.2 0 0 0-.64-.185H6a1.8 1.8 0 0 1-1.8-1.8V6zM6 1.8A4.2 4.2 0 0 0 1.8 6v8.45a4.2 4.2 0 0 0 4.2 4.2h4.682l5.328 3.365A1.2 1.2 0 0 0 17.85 21v-2.35H18a4.2 4.2 0 0 0 4.2-4.2V6A4.2 4.2 0 0 0 18 1.8H6zm1.6 5a1.2 1.2 0 0 0 0 2.4h7.78a1.2 1.2 0 0 0 0-2.4H7.6zm0 4.423a1.2 1.2 0 0 0 0 2.4h4.48a1.2 1.2 0 0 0 0-2.4H7.6z"/></svg>