<svg width="24" height="24" fill="none" xmlns="http://www.w3.org/2000/svg"><path fill-rule="evenodd" clip-rule="evenodd" d="M1.8 5.5a3.7 3.7 0 0 1 7.218-1.15h5.964A3.702 3.702 0 0 1 22.2 5.5a3.702 3.702 0 0 1-2.55 3.518v5.964A3.702 3.702 0 0 1 18.5 22.2a3.702 3.702 0 0 1-3.518-2.55H9.018A3.702 3.702 0 0 1 1.8 18.5a3.702 3.702 0 0 1 2.55-3.518V9.018A3.702 3.702 0 0 1 1.8 5.5zm3.7-1.3a1.3 1.3 0 1 0 0 2.6 1.3 1.3 0 0 0 0-2.6zm1.15 10.782a3.71 3.71 0 0 1 2.368 2.368h5.964a3.71 3.71 0 0 1 2.368-2.368V9.018a3.71 3.71 0 0 1-2.368-2.368H9.018A3.71 3.71 0 0 1 6.65 9.018v5.964zM17.2 5.5a1.3 1.3 0 1 1 2.6 0 1.3 1.3 0 0 1-2.6 0zm1.3 11.7a1.3 1.3 0 1 0 0 2.6 1.3 1.3 0 0 0 0-2.6zM4.2 18.5a1.3 1.3 0 1 1 2.6 0 1.3 1.3 0 0 1-2.6 0z" fill="#fff"/></svg>