<svg width="24" height="24" fill="none" xmlns="http://www.w3.org/2000/svg"><path fill-rule="evenodd" clip-rule="evenodd" d="M8 3.104a1.8 1.8 0 0 0-1.8 1.8v14a1.8 1.8 0 0 0 1.8 1.8h8a1.8 1.8 0 0 0 1.8-1.8v-14a1.8 1.8 0 0 0-1.8-1.8H8zm-4.2 1.8A4.2 4.2 0 0 1 8 .704h8a4.2 4.2 0 0 1 4.2 4.2v14a4.2 4.2 0 0 1-4.2 4.2H8a4.2 4.2 0 0 1-4.2-4.2v-14zm12.05 2.24a1.2 1.2 0 0 1 .015 1.697l-3.927 4a1.2 1.2 0 0 1-.856.359h-.56a1.2 1.2 0 0 1-.842-.345l-1.532-1.51a1.2 1.2 0 0 1 1.685-1.71l.96.947 3.36-3.423a1.2 1.2 0 0 1 1.697-.015zM12 19.473a1.6 1.6 0 1 0 0-3.2 1.6 1.6 0 0 0 0 3.2z" fill="#46A314"/></svg>