<svg width="24" height="24" fill="none" xmlns="http://www.w3.org/2000/svg"><path fill-rule="evenodd" clip-rule="evenodd" d="M12 3.2a5.24 5.24 0 0 0-4.136 8.46l.007.008.005.007.089.11.01.014c1.298 1.61 2.228 2.922 2.945 4.447.378.806.69 1.655.967 2.618.258-.951.575-1.789.977-2.587.76-1.509 1.792-2.817 3.132-4.444l.01-.012.083-.1.01-.013.018-.023.022-.029A5.24 5.24 0 0 0 12 3.2zm5.844 10.164c-1.347 1.636-2.213 2.754-2.836 3.992-.613 1.217-1.019 2.611-1.319 4.806A1.2 1.2 0 0 1 12.5 23.2h-1.1a1.2 1.2 0 0 1-1.176-.963c-.451-2.239-.88-3.7-1.476-4.97-.595-1.267-1.384-2.4-2.636-3.957a7.348 7.348 0 0 1-.118-.146l-.01-.012A7.613 7.613 0 0 1 4.36 8.44a7.64 7.64 0 1 1 13.655 4.717l-.06.072c-.036.046-.073.09-.11.135z" fill="#E86B13"/><path fill-rule="evenodd" clip-rule="evenodd" d="M17.086 12.393a6.44 6.44 0 1 0-10.169.004 24.585 24.585 0 0 1 .124.154c2.553 3.17 3.441 4.893 4.36 9.449h1.1c.62-4.55 1.732-6.138 4.421-9.405.035-.04.069-.082.102-.123l.065-.079h-.003z" fill="#FCD6BB"/><path fill-rule="evenodd" clip-rule="evenodd" d="M12 3.2a5.24 5.24 0 0 0-4.136 8.46l.007.008.005.007.089.11.01.014c1.298 1.61 2.228 2.922 2.945 4.447.378.806.69 1.655.967 2.618.258-.951.575-1.789.977-2.587.76-1.509 1.792-2.817 3.132-4.444l.01-.012.083-.1.01-.013.018-.023.022-.029A5.24 5.24 0 0 0 12 3.2zm5.844 10.164c-1.347 1.636-2.213 2.754-2.836 3.992-.613 1.217-1.019 2.611-1.319 4.806A1.2 1.2 0 0 1 12.5 23.2h-1.1a1.2 1.2 0 0 1-1.176-.963c-.451-2.239-.88-3.7-1.476-4.97-.595-1.267-1.384-2.4-2.636-3.957a7.348 7.348 0 0 1-.118-.146l-.01-.012A7.613 7.613 0 0 1 4.36 8.44a7.64 7.64 0 1 1 13.655 4.717l-.06.072c-.036.046-.073.09-.11.135z" fill="#E86B13"/><path fill-rule="evenodd" clip-rule="evenodd" d="M12 7.7a.8.8 0 1 0 0 1.6.8.8 0 0 0 0-1.6zm-3.2.8a3.2 3.2 0 1 1 6.4 0 3.2 3.2 0 0 1-6.4 0z" fill="#D15100"/></svg>