<svg width="24" height="24" xmlns="http://www.w3.org/2000/svg"><path fill-rule="evenodd" clip-rule="evenodd" d="M12 3.2a3.953 3.953 0 0 0-3.117 6.384l.005.006.001.001.067.084.011.013c1.043 1.295 1.8 2.36 2.386 3.607.207.44.388.895.553 1.382.163-.48.351-.928.57-1.363.622-1.234 1.464-2.3 2.535-3.6l.01-.012.063-.076.01-.012.01-.013a3.93 3.93 0 0 0 .848-2.448A3.953 3.953 0 0 0 12 3.2zm4.86 8.045c-1.078 1.31-1.755 2.185-2.24 3.148-.474.942-.793 2.03-1.031 3.77A1.2 1.2 0 0 1 12.4 19.2h-.88a1.2 1.2 0 0 1-1.176-.963c-.36-1.783-.698-2.931-1.163-3.922-.464-.986-1.08-1.876-2.078-3.115a6.187 6.187 0 0 1-.098-.122l-.01-.012-.005-.007-.003-.003a6.353 6.353 0 1 1 10.01.023l-.047.056-.09.11zM12 6.8a.4.4 0 1 0 0 .8.4.4 0 0 0 0-.8zm-2.8.4a2.8 2.8 0 1 1 5.6 0 2.8 2.8 0 0 1-5.6 0zM4.838 21.57a1.2 1.2 0 0 1 1.2-1.2h11.6a1.2 1.2 0 0 1 0 2.4h-11.6a1.2 1.2 0 0 1-1.2-1.2z"/></svg>