<svg width="48" height="48" viewBox="0 0 48 48" fill="none" xmlns="http://www.w3.org/2000/svg">
<path d="M48 24C48 37.2548 37.2548 48 24 48C10.7452 48 0 37.2548 0 24C0 10.7452 10.7452 0 24 0C37.2548 0 48 10.7452 48 24Z" fill="#EBD8CE"/>
<g clip-path="url(#clip0)">
<path d="M27 13.2273C22.8751 13.6048 20.3094 18.0064 18.8184 21.4378C17.3999 23.9062 14.6964 26.555 14.6699 26.5803C8.39999 33.5151 19.2 36.9834 26.4776 33.3251C28.3589 32.3794 29.9422 31.2139 31.2 29.851C34.0075 26.8086 35.6805 21.9506 34.3076 17.9151C33.2938 14.9352 30.1357 12.9404 27 13.2273Z" fill="#BFA18F"/>
<path fill-rule="evenodd" clip-rule="evenodd" d="M26.8687 11.7933C30.6484 11.4475 34.4368 13.8243 35.6708 17.4513C37.2603 22.1232 35.3137 27.5164 32.2582 30.8276C30.8685 32.3335 29.1399 33.5985 27.1243 34.6117C23.1381 36.6155 18.1622 36.7109 14.9005 35.2374C13.2564 34.4947 11.8021 33.2272 11.4333 31.3522C11.0644 29.4764 11.8851 27.5132 13.6016 25.6146C14.1043 25.0587 14.6449 24.5381 15.1408 23.9743C15.9594 23.0434 16.8939 21.8776 17.5311 20.7871C18.2972 19.0351 19.3685 16.963 20.8254 15.2534C22.3051 13.5169 24.2937 12.029 26.8687 11.7933ZM32.9443 18.3789C32.1507 16.0462 29.6229 14.4334 27.1311 14.6614C25.5812 14.8032 24.2246 15.7047 23.0175 17.1213C21.8089 18.5396 20.8619 20.3482 20.139 22.0117C20.1177 22.0609 20.0936 22.1089 20.0668 22.1554C18.6444 24.6304 16.0927 27.1984 15.7117 27.5752C14.3173 29.1282 14.1398 30.1896 14.2592 30.7964C14.3794 31.4077 14.9044 32.0789 16.0862 32.6128C18.4764 33.6926 22.5394 33.693 25.8308 32.0385C27.5777 31.1603 29.0159 30.0944 30.1417 28.8744C32.7011 26.1009 34.1007 21.7779 32.9443 18.3789Z" fill="#66452E"/>
<path d="M25.4539 16.9122C25.46 16.9267 25.498 16.998 25.5231 17.0264C25.8988 17.049 26.2494 17.2133 26.5074 17.4889C26.7738 17.7741 26.916 18.151 26.903 18.5417C26.881 19.1787 26.4529 19.7286 25.8396 19.9043C25.689 19.9477 25.5355 19.9643 25.384 19.9608C23.7196 19.9035 22.8975 18.5578 22.6663 17.845L22.6658 17.8435C22.5459 17.4717 22.5782 17.0708 22.7566 16.7227C22.9347 16.3756 23.2404 16.116 23.6102 15.9957C24.378 15.7432 25.1943 16.1617 25.4539 16.9122Z" fill="#66452E"/>
<path d="M19.5967 26.1403C19.972 26.1631 20.3222 26.3273 20.58 26.6027C20.8463 26.8878 20.9886 27.2648 20.9756 27.6555C20.9536 28.2924 20.5255 28.8424 19.9121 29.0181C18.5511 29.4107 17.1357 28.1848 16.7382 26.9586C16.6183 26.5869 16.6501 26.185 16.8283 25.8371C17.0065 25.4893 17.3131 25.2285 17.6845 25.1086L17.6889 25.1071C18.4449 24.8676 19.2632 25.2709 19.525 26.0237C19.5318 26.0398 19.5721 26.1129 19.5967 26.1403Z" fill="#66452E"/>
<path d="M29.3285 27.4195C29.3033 27.3911 29.2653 27.3198 29.2593 27.3053C28.9996 26.5548 28.1834 26.1363 27.4156 26.3888C27.0458 26.5091 26.7401 26.7687 26.562 27.1158C26.3835 27.4639 26.3513 27.8648 26.4712 28.2366L26.4717 28.2381C26.7029 28.9509 27.525 30.2966 29.1894 30.3539C29.3409 30.3574 29.4943 30.3408 29.645 30.2974L29.6435 30.2978L29.6464 30.297L29.645 30.2974C30.2583 30.1217 30.6864 29.5718 30.7084 28.9348C30.7214 28.5441 30.5791 28.1672 30.3128 27.882C30.0547 27.6064 29.7042 27.4421 29.3285 27.4195Z" fill="#66452E"/>
</g>
<defs>
<clipPath id="clip0">
<rect width="28.8" height="28.8" fill="white" transform="translate(9.59998 9.59998)"/>
</clipPath>
</defs>
</svg>
