<svg width="28" height="28" fill="none" xmlns="http://www.w3.org/2000/svg"><g clip-path="url(#clip0)"><path d="M16.916 3.527c-4.01.367-6.504 4.646-7.954 7.982-1.38 2.4-4.007 4.975-4.033 5-6.096 6.742 4.404 10.114 11.48 6.557 1.829-.92 3.368-2.052 4.59-3.378 2.73-2.957 4.357-7.68 3.022-11.604-.986-2.897-4.056-4.836-7.105-4.557z" fill="#BFA18F"/><path fill-rule="evenodd" clip-rule="evenodd" d="M16.79 2.132c3.674-.336 7.357 1.975 8.557 5.501 1.545 4.542-.347 9.786-3.318 13.005-1.35 1.464-3.032 2.694-4.991 3.679-3.876 1.948-8.713 2.04-11.884.608-1.599-.722-3.013-1.954-3.371-3.777-.359-1.824.439-3.732 2.108-5.578.489-.54 1.014-1.047 1.496-1.595.796-.905 1.705-2.038 2.324-3.099.745-1.703 1.787-3.718 3.203-5.38 1.438-1.688 3.372-3.135 5.875-3.364zm5.906 6.403c-.771-2.268-3.229-3.836-5.652-3.614-1.506.138-2.825 1.014-3.999 2.391-1.175 1.38-2.096 3.138-2.798 4.755-.021.048-.045.094-.07.14-1.383 2.406-3.864 4.902-4.235 5.269-1.355 1.51-1.528 2.542-1.412 3.132.117.594.627 1.247 1.776 1.766 2.324 1.05 6.274 1.05 9.474-.559 1.699-.854 3.097-1.89 4.191-3.076 2.489-2.697 3.85-6.9 2.725-10.204z" fill="#66452E"/><path d="M15.413 7.109a.617.617 0 0 0 .067.111 1.424 1.424 0 0 1 1.342 1.473 1.428 1.428 0 0 1-1.477 1.38c-1.618-.056-2.417-1.364-2.642-2.057v-.001a1.426 1.426 0 0 1 .918-1.796 1.427 1.427 0 0 1 1.792.89zM9.72 16.081a1.425 1.425 0 0 1 1.34 1.473 1.428 1.428 0 0 1-1.034 1.325c-1.323.381-2.699-.81-3.085-2.003a1.426 1.426 0 0 1 .92-1.798l.004-.002c.735-.233 1.53.16 1.785.891a.648.648 0 0 0 .07.114zm9.461 1.244a.623.623 0 0 1-.067-.112 1.427 1.427 0 0 0-1.793-.89 1.426 1.426 0 0 0-.918 1.796v.001c.225.693 1.025 2.002 2.643 2.057.147.004.296-.012.443-.055h-.002.003-.001a1.428 1.428 0 0 0-.308-2.797z" fill="#66452E"/></g><defs><clipPath id="clip0"><path fill="#fff" d="M0 0H28V28H0z"/></clipPath></defs></svg>