<svg width="24" height="24" fill="none" xmlns="http://www.w3.org/2000/svg"><path fill-rule="evenodd" clip-rule="evenodd" d="M12 19.6c-4.2 0-7.6-3.4-7.6-7.6 0-4.2 3.4-7.6 7.6-7.6 4.2 0 7.6 3.4 7.6 7.6 0 4.2-3.4 7.6-7.6 7.6zm0 2.4C6.475 22 2 17.525 2 12S6.475 2 12 2s10 4.475 10 10-4.475 10-10 10zM9.724 7.75a1.2 1.2 0 1 0-1.874 1.5l2.2 2.75-2.2 2.75a1.2 1.2 0 1 0 1.874 1.5L12 13.405l2.276 2.845a1.2 1.2 0 1 0 1.874-1.5L13.95 12l2.2-2.75a1.2 1.2 0 0 0-1.874-1.5L12 10.595 9.724 7.75z" fill="#fff"/></svg>