<svg width="48" height="48" viewBox="0 0 48 48" fill="none" xmlns="http://www.w3.org/2000/svg">
<circle cx="24" cy="24" r="22" fill="#F5CC27"/>
<circle cx="24" cy="24" r="16" fill="#C79300"/>
<path fill-rule="evenodd" clip-rule="evenodd" d="M23.9001 13.6C24.3611 13.6029 24.7864 13.8489 25.0187 14.2471L28.0131 19.3805C28.0173 19.3854 28.0225 19.3911 28.0288 19.3974C28.0433 19.4119 28.0595 19.4253 28.0754 19.4361C28.0853 19.4428 28.0933 19.4474 28.0987 19.4501C28.115 19.4528 28.1313 19.4557 28.1475 19.459L32.6843 20.3772C33.1553 20.4725 33.5357 20.819 33.6744 21.2791C33.8131 21.7391 33.6877 22.2382 33.3479 22.5779L29.5132 26.4127C29.5072 26.4187 29.505 26.4227 29.505 26.4227C29.505 26.4227 29.5028 26.4269 29.5012 26.4344C29.4983 26.4479 29.493 26.4893 29.5124 26.5605L31.2866 31.8832C31.4534 32.3837 31.3023 32.9354 30.9038 33.281C30.5052 33.6267 29.9377 33.6982 29.4658 33.4623L23.9568 30.7078C23.9268 30.6928 23.908 30.6871 23.8997 30.685C23.892 30.6831 23.892 30.6834 23.892 30.6834C23.892 30.6834 23.892 30.6831 23.8843 30.685C23.876 30.6871 23.8572 30.6928 23.8272 30.7078L18.3182 33.4623C17.8489 33.6969 17.2846 33.6275 16.8862 33.2861C16.4877 32.9448 16.3326 32.3978 16.4925 31.8981L18.2209 26.4971C18.2299 26.4688 18.2399 26.4408 18.2509 26.4132C18.2485 26.4067 18.2451 26.3991 18.2406 26.3909C18.2327 26.3768 18.224 26.3659 18.2168 26.3587L14.3821 22.5239C14.0423 22.1842 13.9169 21.6851 14.0556 21.2251C14.1943 20.765 14.5747 20.4185 15.0457 20.3232L19.5825 19.405C19.6083 19.3998 19.6343 19.3954 19.6603 19.3917C19.6712 19.3827 19.6911 19.3637 19.7155 19.33L22.7735 14.2333C23.0107 13.8379 23.439 13.5972 23.9001 13.6Z" fill="white" fill-opacity="0.9"/>
</svg>
