<svg width="40" height="40" fill="none" xmlns="http://www.w3.org/2000/svg"><path d="M40 20c0 11.046-8.954 20-20 20S0 31.046 0 20 8.954 0 20 0s20 8.954 20 20z" fill="#FAF1CD"/><g clip-path="url(#clip0)" fill-rule="evenodd" clip-rule="evenodd"><path d="M12.431 15.66a2.674 2.674 0 0 0 1.351 2.414c.584.332 2.665 1.4 5.006.502a5.3 5.3 0 0 0 .71-.337c1.355-.765 2.196-2 2.582-3.403.179-.65.226-1.222.239-1.558a2.674 2.674 0 0 0-1.353-2.425c-.583-.331-2.667-1.4-5.004-.502a5.327 5.327 0 0 0-.706.332l-.005.003c-1.208.684-2.022 1.755-2.456 3a6.79 6.79 0 0 0-.364 1.973zm10.661 2.973a2.14 2.14 0 0 1 1.69-1.43 5.436 5.436 0 0 1 1.605-.015c1.044.15 2.01.627 2.73 1.47l.004.004c.132.156.256.324.369.504 1.061 1.698.54 3.498.37 4.006a2.14 2.14 0 0 1-1.699 1.433 5.535 5.535 0 0 1-1.26.05c-1.16-.09-2.258-.56-3.066-1.508a4.238 4.238 0 0 1-.373-.506c-1.063-1.701-.541-3.499-.37-4.008zm-11.52 9.233a2.523 2.523 0 0 1-.373-2.583 6.41 6.41 0 0 1 .988-1.615c.803-.95 1.882-1.617 3.176-1.81l.006-.002c.237-.035.483-.054.734-.054 2.361 0 3.835 1.645 4.236 2.133.599.728.742 1.728.372 2.594-.125.291-.36.779-.737 1.29-.814 1.105-1.972 1.909-3.424 2.125a4.99 4.99 0 0 1-.74.056c-2.364 0-3.835-1.644-4.237-2.134z" fill="#FAD95A"/><path d="M12.431 15.66a2.674 2.674 0 0 0 1.351 2.414c.584.332 2.665 1.4 5.006.502a5.3 5.3 0 0 0 .71-.337c1.355-.765 2.196-2 2.582-3.403.179-.65.226-1.222.239-1.558a2.674 2.674 0 0 0-1.353-2.425c-.583-.331-2.667-1.4-5.004-.502a5.327 5.327 0 0 0-.706.332l-.005.003c-1.208.684-2.022 1.755-2.456 3a6.79 6.79 0 0 0-.364 1.973zm7.07-1.534c-.225.818-.669 1.418-1.32 1.786-.114.065-.232.121-.352.167-1.151.442-2.28-.077-2.725-.33.008-.25.049-.702.217-1.185.243-.698.663-1.22 1.247-1.55.114-.065.232-.12.352-.167 1.148-.44 2.28.078 2.726.332a4.247 4.247 0 0 1-.145.947zm3.591 4.507a2.14 2.14 0 0 1 1.69-1.43 5.436 5.436 0 0 1 1.605-.015c1.044.15 2.01.627 2.73 1.47l.004.004c.132.156.256.324.369.504 1.061 1.698.54 3.498.37 4.006a2.14 2.14 0 0 1-1.699 1.433 5.535 5.535 0 0 1-1.26.05c-1.16-.09-2.258-.56-3.066-1.508a4.238 4.238 0 0 1-.373-.506c-1.063-1.701-.541-3.499-.37-4.008zm2.37 3.125c.387.455.927.712 1.603.764.322.025.604-.006.766-.03.131-.39.366-1.358-.155-2.193a2.149 2.149 0 0 0-.185-.25c-.349-.409-.823-.659-1.408-.743a3.299 3.299 0 0 0-.963.01c-.131.388-.366 1.354.156 2.19.055.088.117.172.185.252zm-13.89 6.108a2.523 2.523 0 0 1-.373-2.583 6.41 6.41 0 0 1 .988-1.615c.803-.95 1.882-1.617 3.176-1.81l.006-.002c.237-.035.483-.054.734-.054 2.361 0 3.835 1.645 4.236 2.133.599.728.742 1.728.372 2.594-.125.291-.36.779-.737 1.29-.814 1.105-1.972 1.909-3.424 2.125a4.99 4.99 0 0 1-.74.056c-2.364 0-3.835-1.644-4.237-2.134zm4.605-.416c.698-.104 1.292-.483 1.767-1.127.226-.306.371-.607.447-.785-.307-.374-1.129-1.214-2.288-1.214-.121 0-.244.01-.366.028-.627.094-1.173.411-1.623.944-.311.368-.5.752-.591.97.306.373 1.125 1.212 2.288 1.212.12 0 .244-.01.366-.028z" fill="#7A563D"/></g><defs><clipPath id="clip0"><path fill="#fff" transform="translate(8 8)" d="M0 0H24V24H0z"/></clipPath></defs></svg>