<svg width="80" height="80" fill="none" xmlns="http://www.w3.org/2000/svg"><circle cx="40" cy="40" r="40" fill="#FAEFE6"/><path d="M40.697 18.823a1.93 1.93 0 0 0-2.412 3.016l2.69 2.152h-1.72c-9.806 0-17.755 7.95-17.755 17.754 0 9.806 7.95 17.755 17.755 17.755s17.754-7.95 17.754-17.755a2.068 2.068 0 1 0-4.137 0c0 7.52-6.098 13.618-13.617 13.618-7.52 0-13.618-6.098-13.618-13.618 0-7.52 6.098-13.617 13.618-13.617h2.668l3.738.886a1 1 0 0 0 .855-.192c.459-.367.725-.922.725-1.508v-2.328c0-.586-.266-1.141-.724-1.508l-5.82-4.655z" fill="#E86B13"/><path d="M48.016 19.125a1.931 1.931 0 0 1 2.714-.302l5.819 4.655c.458.367.725.922.725 1.508v2.328c0 .586-.267 1.141-.725 1.508l-5.82 4.655a1.931 1.931 0 0 1-2.412-3.016l5.094-4.075v-.472l-5.094-4.075a1.93 1.93 0 0 1-.301-2.714z" fill="#E86B13"/><path fill-rule="evenodd" clip-rule="evenodd" d="M40.032 32c.42.003.809.224 1.02.582l2.732 4.62a.253.253 0 0 0 .057.05l.021.013.045.008 4.139.826c.43.086.777.398.903.812.127.414.012.863-.298 1.17l-3.498 3.45a.045.045 0 0 0-.008.01s-.002.003-.003.01a.246.246 0 0 0 .01.113l1.619 4.79c.152.451.014.948-.35 1.259a1.203 1.203 0 0 1-1.311.163l-5.026-2.479a.27.27 0 0 0-.052-.02l-.007-.002-.007.002a.268.268 0 0 0-.053.02l-5.026 2.48a1.203 1.203 0 0 1-1.306-.16 1.164 1.164 0 0 1-.359-1.249l1.577-4.86c.008-.026.017-.051.027-.076a.145.145 0 0 0-.031-.05l-3.498-3.45a1.163 1.163 0 0 1-.298-1.17c.126-.413.473-.725.903-.811l4.139-.827.071-.011a.3.3 0 0 0 .05-.056l2.79-4.587a1.194 1.194 0 0 1 1.028-.57z" fill="#E86B13"/></svg>