<svg width="24" height="24" viewBox="0 0 24 24" fill="none" xmlns="http://www.w3.org/2000/svg">
<path fill-rule="evenodd" clip-rule="evenodd" d="M12.028 4.00002C12.3969 4.0023 12.7371 4.19911 12.9229 4.5177L15.3185 8.62438C15.3218 8.62831 15.326 8.63289 15.331 8.63792C15.3426 8.64952 15.3556 8.66021 15.3683 8.66885C15.3763 8.67427 15.3826 8.67788 15.3869 8.68009C15.4 8.68222 15.413 8.68459 15.426 8.68722L19.0555 9.42176C19.4322 9.498 19.7366 9.77522 19.8475 10.1433C19.9585 10.5113 19.8582 10.9105 19.5863 11.1823L16.5186 14.2501C16.5138 14.2549 16.512 14.2582 16.512 14.2582C16.512 14.2582 16.5103 14.2615 16.509 14.2675C16.5066 14.2783 16.5024 14.3114 16.5179 14.3684L17.9373 18.6265C18.0707 19.0269 17.9499 19.4683 17.631 19.7448C17.3122 20.0213 16.8582 20.0786 16.4807 19.8898L12.0734 17.6862C12.0494 17.6742 12.0344 17.6697 12.0278 17.668C12.0216 17.6664 12.0216 17.6667 12.0216 17.6667C12.0216 17.6667 12.0216 17.6664 12.0154 17.668C12.0088 17.6697 11.9938 17.6742 11.9698 17.6862L7.56253 19.8898C7.18709 20.0775 6.73571 20.022 6.41695 19.7489C6.09819 19.4758 5.97411 19.0383 6.10204 18.6385L7.4847 14.3177C7.49194 14.295 7.49996 14.2727 7.50873 14.2506C7.50681 14.2453 7.50412 14.2392 7.50047 14.2327C7.49419 14.2215 7.48719 14.2127 7.48143 14.2069L4.41366 11.1391C4.14184 10.8673 4.04148 10.4681 4.15246 10.1001C4.26343 9.73202 4.56776 9.4548 4.94452 9.37855L8.57401 8.64401C8.59465 8.63983 8.61541 8.63628 8.63626 8.63336C8.64499 8.62617 8.66086 8.61095 8.6804 8.58399L11.1268 4.50661C11.3166 4.19034 11.6592 3.99774 12.028 4.00002Z"/>
</svg>
