<svg width="24" height="24" fill="none" xmlns="http://www.w3.org/2000/svg"><path fill-rule="evenodd" clip-rule="evenodd" d="M12 0a1.2 1.2 0 0 1 1.2 1.2v2.312a8.647 8.647 0 0 0-2.4 0V1.2A1.2 1.2 0 0 1 12 0zM6.847 5.15L5.212 3.515a1.2 1.2 0 0 0-1.697 1.697L5.15 6.847A8.622 8.622 0 0 1 6.847 5.15zM3.512 10.8H1.2a1.2 1.2 0 0 0 0 2.4h2.312a8.646 8.646 0 0 1 0-2.4zm1.638 6.353l-1.635 1.635a1.2 1.2 0 0 0 1.697 1.697l1.635-1.635a8.623 8.623 0 0 1-1.697-1.697zm5.65 3.335V22.8a1.2 1.2 0 1 0 2.4 0v-2.312a8.65 8.65 0 0 1-2.4 0zm6.353-1.638l1.635 1.635a1.2 1.2 0 1 0 1.697-1.697l-1.635-1.635a8.62 8.62 0 0 1-1.697 1.697zm3.335-5.65H22.8a1.2 1.2 0 0 0 0-2.4h-2.312a8.635 8.635 0 0 1 0 2.4zM18.85 6.847l1.635-1.635a1.2 1.2 0 1 0-1.697-1.697L17.153 5.15a8.62 8.62 0 0 1 1.697 1.697z" fill="#F5CC27"/><path d="M18.947 12a6.947 6.947 0 1 1-13.895 0 6.947 6.947 0 0 1 13.895 0z" fill="#FAF1CD"/><path fill-rule="evenodd" clip-rule="evenodd" d="M12 18.948a6.947 6.947 0 0 0 6.945-7.124 6.947 6.947 0 0 0-10.838 5.932A6.915 6.915 0 0 0 12 18.948z" fill="#F5CC27"/><path fill-rule="evenodd" clip-rule="evenodd" d="M12 16.547a4.547 4.547 0 1 0 0-9.094 4.547 4.547 0 0 0 0 9.095zm0 2.4a6.947 6.947 0 1 0 0-13.894 6.947 6.947 0 0 0 0 13.895z" fill="#E0B300"/></svg>