<svg width="24" height="24" viewBox="0 0 24 24" xmlns="http://www.w3.org/2000/svg">
<path fill-rule="evenodd" clip-rule="evenodd" d="M10.7126 6.34546C13.522 5.70244 16.4372 7.23971 17.4485 10.0182C17.7846 10.9417 17.8715 11.8926 17.7445 12.8H17.0002C16.5389 12.8 16.1184 13.0644 15.9186 13.4802C15.7188 13.896 15.775 14.3895 16.0631 14.7497L17.4133 16.4373C17.7989 16.9194 18.3828 17.2 19.0002 17.2C19.6175 17.2 20.2014 16.9194 20.5871 16.4373L19.6501 15.6877L20.5871 16.4373L21.9372 14.7497C22.2254 14.3895 22.2816 13.896 22.0817 13.4802C21.8819 13.0644 21.4615 12.8 21.0002 12.8H20.161C20.2775 11.6159 20.1371 10.3879 19.7038 9.19736C18.2733 5.26709 14.1519 3.0962 10.1772 4.00595C9.53112 4.15382 9.12727 4.79741 9.27514 5.44344C9.42301 6.08948 10.0666 6.49332 10.7126 6.34546ZM3.88488 13.2H3.00018C2.5389 13.2 2.11844 12.9356 1.91862 12.5199C1.7188 12.1041 1.77498 11.6106 2.06314 11.2504L3.41326 9.56274C3.79893 9.08066 4.38282 8.80003 5.00018 8.80003C5.61755 8.80003 6.20144 9.08066 6.58711 9.56274L7.93723 11.2504C8.22539 11.6106 8.28157 12.1041 8.08175 12.5199C7.88192 12.9356 7.46147 13.2 7.00018 13.2H6.32248C6.37838 13.4629 6.45329 13.7253 6.54806 13.9856C7.47183 16.5237 9.98494 18.0273 12.5561 17.7767C13.2157 17.7125 13.8026 18.1951 13.8669 18.8547C13.9312 19.5143 13.4485 20.1011 12.7889 20.1654C9.15443 20.5196 5.60017 18.3985 4.2928 14.8065C4.09984 14.2763 3.96487 13.7384 3.88488 13.2Z" />
</svg>
