<svg width="24" height="25" viewBox="0 0 24 25" fill="none" xmlns="http://www.w3.org/2000/svg">
<path fill-rule="evenodd" clip-rule="evenodd" d="M12.6101 11.4447V5.2691C12.6101 3.80719 12.1023 2.48082 10.6524 2.50021C9.2025 2.5196 8.71918 3.84792 8.71918 5.2691V15.7691C8.71918 14.2241 5.46373 11.2521 4.02355 12.3888C2.58332 13.5255 3.19811 14.957 4.59105 16.6218C5.52575 18.0595 8.24283 23.169 10.1192 23.169H16.2049C16.7765 23.169 17.3495 23.0585 17.8463 22.7759C21.1971 20.8699 20.5771 18.1638 20.8102 14.7691C20.8102 13.8532 20.6131 12.7303 19.7593 12.3888C19.1207 12.1334 18.2996 12.7575 18.2996 12.7575C18.2996 12.7575 18.4548 11.6053 17.2732 11.2521C16.0916 10.899 15.659 11.9791 15.659 11.9791C15.659 11.9791 15.659 10.8656 14.4983 10.5497C13.3377 10.2338 12.978 11.3989 12.6101 11.4447Z" fill="white"/>
<path fill-rule="evenodd" clip-rule="evenodd" d="M7.28109 1.7793C7.67912 2.30921 7.57221 3.06145 7.04231 3.45948C6.7239 3.69864 6.5217 4.07553 6.5217 4.5C6.5217 4.92446 6.7239 5.30135 7.04231 5.54052C7.57221 5.93855 7.67912 6.69078 7.28109 7.22069C6.88306 7.7506 6.13083 7.8575 5.60092 7.45948C4.70499 6.78652 4.1217 5.7112 4.1217 4.5C4.1217 3.28879 4.70499 2.21347 5.60092 1.54052C6.13083 1.14249 6.88306 1.2494 7.28109 1.7793Z" fill="white"/>
<path fill-rule="evenodd" clip-rule="evenodd" d="M14.0036 1.7793C13.6055 2.30921 13.7125 3.06145 14.2424 3.45948C14.5608 3.69864 14.763 4.07553 14.763 4.5C14.763 4.92446 14.5608 5.30135 14.2424 5.54052C13.7125 5.93855 13.6055 6.69078 14.0036 7.22069C14.4016 7.7506 15.1538 7.8575 15.6837 7.45948C16.5797 6.78652 17.163 5.7112 17.163 4.5C17.163 3.28879 16.5797 2.21347 15.6837 1.54052C15.1538 1.14249 14.4016 1.2494 14.0036 1.7793Z" fill="white"/>
</svg>
