<svg width="24" height="24" fill="none" xmlns="http://www.w3.org/2000/svg"><path clip-rule="evenodd" d="M13.396 21.475a1.2 1.2 0 0 0 1.084-.687l2.816-5.954a1.81 1.81 0 0 0 .253-.937l.001-8.975a2.868 2.868 0 0 0-2.872-2.872h-7.52c-1.311 0-2.326.824-2.779 1.896a1.202 1.202 0 0 0-.037.1l-2.395 7.475c-.633 1.867.832 3.758 2.737 3.758h5.56v4.996a1.2 1.2 0 0 0 1.2 1.2h1.952zm1.753-7.715l-2.505 5.298v-4.325a1.852 1.852 0 0 0-1.855-1.854H4.684a.486.486 0 0 1-.391-.207.41.41 0 0 1-.072-.382l.008-.025 2.38-7.426c.13-.278.34-.389.548-.389h7.521c.266 0 .472.21.472.472l-.001 8.838zM21 15.35a1.2 1.2 0 0 0 1.2-1.2V3.288a1.2 1.2 0 0 0-1.2-1.2h-1a1.2 1.2 0 0 0-1.2 1.2v10.864a1.2 1.2 0 0 0 1.2 1.2h1z"/></svg>