<svg width="24" height="24" fill="none" xmlns="http://www.w3.org/2000/svg"><path clip-rule="evenodd" d="M10.604 2.05a1.2 1.2 0 0 0-1.084.687L6.704 8.692a1.811 1.811 0 0 0-.253.936l-.001 8.975a2.868 2.868 0 0 0 2.872 2.872h7.521c1.31 0 2.326-.824 2.778-1.896.014-.033.026-.066.037-.1l2.395-7.475c.633-1.867-.832-3.758-2.737-3.758h-5.56V3.25a1.2 1.2 0 0 0-1.2-1.2h-1.952zM8.851 9.765l2.505-5.298v4.325c0 1.026.829 1.854 1.855 1.854h6.105c.15 0 .294.074.391.207a.41.41 0 0 1 .072.382l-.008.026-2.38 7.425c-.13.278-.34.389-.548.389H9.322a.468.468 0 0 1-.472-.472l.001-8.838zM3 8.175a1.2 1.2 0 0 0-1.2 1.2v10.863a1.2 1.2 0 0 0 1.2 1.2h1a1.2 1.2 0 0 0 1.2-1.2V9.374a1.2 1.2 0 0 0-1.2-1.2H3z"/></svg>