<svg width="24" height="24" xmlns="http://www.w3.org/2000/svg"><path fill-rule="evenodd" clip-rule="evenodd" d="M14 3.028a1.2 1.2 0 0 1 1.2 1.2v2.6c0 .217.13.528.507.831.046.037.094.072.143.105V4.228a1.2 1.2 0 0 1 2.4 0v3.459l.082-.058c.451-.332.568-.642.568-.801v-2.6a1.2 1.2 0 0 1 2.4 0v2.6c0 1.22-.768 2.162-1.546 2.734-.443.326-.962.59-1.504.759V20.5a1.2 1.2 0 1 1-2.4 0V10.373a4.647 4.647 0 0 1-1.643-.84C13.455 8.93 12.8 7.99 12.8 6.827v-2.6a1.2 1.2 0 0 1 1.2-1.2zm-4.95 12.84h-.563v.42a1.2 1.2 0 0 1-2.4 0v-.42H5.45v2.423a4.26 4.26 0 0 0 .466.587c.42.439.89.721 1.38.725.538.004.995-.256 1.37-.608.161-.152.29-.306.384-.43v-2.697zm1.2 3.057l1.05.581a1.2 1.2 0 0 0 .15-.58v-4.257a1.2 1.2 0 0 0-1.2-1.2H8.487V4.853h.873a1.2 1.2 0 1 0 0-2.4H5.189a1.2 1.2 0 1 0 0 2.4h.898v8.616H4.25a1.2 1.2 0 0 0-1.2 1.2v3.955c0 .192.046.38.134.551l1.066-.551-1.066.551.002.003.002.005.006.01.016.03.054.096a6.662 6.662 0 0 0 .919 1.218c.62.648 1.668 1.455 3.095 1.466 1.379.01 2.403-.669 3.031-1.26a5.788 5.788 0 0 0 .964-1.189l.017-.03.006-.01.002-.004.001-.002s.001-.002-1.049-.582z"/></svg>